<?xml version="1.0" standalone="no"?>
  <!DOCTYPE svg PUBLIC "-//W3C//DTD SVG 1.1//EN" "http://www.w3.org/Graphics/SVG/1.1/DTD/svg11.dtd" >
  <svg>
  <metadata>
  Created by font-carrier
  </metadata>
  <defs>
  <font id="AthloneDEMO" horiz-adv-x="701" vert-adv-y="701" >
    <font-face
      
      font-family="Athlone DEMO"
      
      font-weight="400"
      
      font-stretch="normal"
      
      units-per-em="1000"
      
      ascent="761"
      
      descent="-239"
      
    />
      <missing-glyph />

      

      
      <glyph glyph-name="uni24" unicode="&#x24;" d="M175-8Q153-6 133.50-3Q114 0 100 0Q78 0 58-10L49-10L20 162L27 162Q54 104 93.50 76Q133 48 175 43L175 199Q149 218 121.50 238Q94 258 71.50 280Q49 302 34.50 325.50Q20 349 20 376Q20 410 33.50 432.50Q47 455 68.50 468.50Q90 482 118 487.50Q146 493 175 493L175 544L211 544L211 491Q230 489 242 486Q254 483 265 483Q287 483 304 493L314 493L332 341L325 341Q303 388 273.50 412Q244 436 211 440L211 298Q237 278 265 256.50Q293 235 316.50 211.50Q340 188 355.50 162Q371 136 371 107Q371 75 357 53Q343 31 320 17Q297 3 268.50-3.50Q240-10 211-10L211-60L175-60L175-8M175 438Q157 434 144.50 422Q132 410 132 391Q132 375 143.50 359.50Q155 344 175 327L175 438M211 44Q236 49 247 65Q258 81 258 99Q258 117 245 135Q232 153 211 171L211 44Z"  horiz-adv-x="381" vert-adv-y="1000"  />

      
      <glyph glyph-name="uni25" unicode="&#x25;" d="M236 367Q236 341 227 318Q218 295 202.50 278Q187 261 167 251.50Q147 242 125 242Q103 242 83 251.50Q63 261 48 278Q33 295 24 318Q15 341 15 367Q15 393 24 416Q33 439 48.50 456Q64 473 84 483Q104 493 126 493Q170 493 202 458Q241 432 274.50 439Q308 446 337 483L373 483L155 0L119 0L317 438Q297 418 275 413.50Q253 409 228 415Q236 391 236 367M477 116Q477 90 468 67Q459 44 443.50 27Q428 10 408 0Q388-10 366-10Q344-10 324 0Q304 10 289 27Q274 44 265 67Q256 90 256 116Q256 142 265 165Q274 188 289 205Q304 222 324 232Q344 242 366 242Q388 242 408 232Q428 222 443.50 205Q459 188 468 165Q477 142 477 116M320 116Q321 97 325 78.50Q329 60 336 45.50Q343 31 352 22Q361 13 373 13Q385 13 393 22Q401 31 406 45.50Q411 60 412 78.50Q413 97 412 116Q411 135 407 153.50Q403 172 396.50 186.50Q390 201 381 210Q372 219 360 219Q348 219 340 210Q332 201 327 186.50Q322 172 320.50 153.50Q319 135 320 116M79 367Q80 348 84 329.50Q88 311 95 297Q102 283 111 274Q120 265 132 265Q144 265 152 274Q160 283 165 297Q170 311 171 329.50Q172 348 171 367Q170 386 166 405Q162 424 155.50 438Q149 452 140 461Q131 470 119 470Q107 470 99 461Q91 452 86 438Q81 424 79.50 405Q78 386 79 367Z"  horiz-adv-x="492" vert-adv-y="1000"  />

      
      <glyph glyph-name="uni26" unicode="&#x26;" d="M132 372Q132 395 139.50 417Q147 439 163 455.50Q179 472 205 482Q231 492 267 492Q286 492 302 487.50Q318 483 332 483Q343 483 349.50 486.50Q356 490 361 495L369 495L385 341L377 341Q358 392 330 416.50Q302 441 278 441Q261 441 246.50 426Q232 411 232 382Q232 350 242 317.50Q252 285 269 254.50Q286 224 309.50 196.50Q333 169 359 148Q380 175 382 206Q384 237 350 261L352 268L492 268L495 261Q474 249 458.50 235.50Q443 222 429.50 207Q416 192 404 174.50Q392 157 377 136Q389 127 406.50 119Q424 111 443 107Q462 103 481 103.50Q500 104 514 110Q514 54 488.50 27.50Q463 1 421 1Q394 1 365 14Q336 27 311 49Q282 19 245.50 5Q209-9 172-9Q143-9 115.50 0Q88 9 67 26.50Q46 44 33 69.50Q20 95 20 128Q20 176 52.50 219.50Q85 263 148 286Q140 309 136 331Q132 353 132 372M292 65Q271 83 251 107Q231 131 213 157Q195 183 180 211.50Q165 240 155 267Q117 221 117 163Q117 134 125.50 111.50Q134 89 149 74Q164 59 183.50 51.50Q203 44 225 44Q260 44 292 65Z"  horiz-adv-x="534" vert-adv-y="1000"  />

      
      <glyph glyph-name="uni27" unicode="&#x27;" d="M87 486Q116 486 130 468Q144 450 144 425Q144 407 137.50 389.50Q131 372 118.50 358Q106 344 88.50 335Q71 326 49 325L34 356Q61 356 80 369L80 371Q59 374 44.50 390Q30 406 30 428Q30 452 47 469Q64 486 87 486Z"  horiz-adv-x="174" vert-adv-y="1000"  />

      
      <glyph glyph-name="uni28" unicode="&#x28;" d="M90 242Q90 191 96.50 142Q103 93 115.50 55Q128 17 146.50-6.50Q165-30 189-30L189-50Q151-50 121.50-25Q92 0 72 41Q52 82 41 134.50Q30 187 30 242Q30 296 41 348.50Q52 401 72 442Q92 483 121.50 508Q151 533 189 533L189 513Q165 513 146.50 489.50Q128 466 115.50 428Q103 390 96.50 341.50Q90 293 90 242Z"  horiz-adv-x="204" vert-adv-y="1000"  />

      
      <glyph glyph-name="uni29" unicode="&#x29;" d="M114 242Q114 293 107.50 341.50Q101 390 88.50 428Q76 466 57.50 489.50Q39 513 15 513L15 533Q53 533 82.50 508Q112 483 132 442Q152 401 163 348.50Q174 296 174 242Q174 187 163 134.50Q152 82 132 41Q112 0 82.50-25Q53-50 15-50L15-30Q39-30 57.50-6.50Q76 17 88.50 55Q101 93 107.50 142Q114 191 114 242Z"  horiz-adv-x="204" vert-adv-y="1000"  />

      
      <glyph glyph-name="uni2a" unicode="&#x2a;" d="M150 479Q142 459 135.50 440Q129 421 124 401Q139 416 152 431Q165 446 178 463L183 463Q201 442 211 415Q210 414 209.50 413Q209 412 208 411Q187 409 167 404.50Q147 400 127 395Q147 390 167 385.50Q187 381 208 379Q209 378 209.50 377Q210 376 211 375Q201 348 183 327L178 327Q165 344 152 359Q139 374 124 389Q129 369 135.50 350Q142 331 150 311Q150 310 149.50 309Q149 308 149 307Q133 305 120.50 305Q108 305 92 307Q92 308 91.50 309Q91 310 91 311Q99 331 105.50 350Q112 369 117 389Q102 374 88.50 359Q75 344 63 327Q60 327 58 326Q40 348 30 375Q31 376 31.50 377Q32 378 33 379Q54 381 74 385.50Q94 390 114 395Q94 400 74 404.50Q54 409 33 411Q32 412 31.50 413Q31 414 30 415Q40 442 58 463L63 463Q75 446 88.50 431Q102 416 117 401Q112 421 105.50 440Q99 459 91 479Q91 480 91.50 481Q92 482 92 483Q108 485 120.50 485Q133 485 149 483Q149 482 149.50 481Q150 480 150 479Z"  horiz-adv-x="241" vert-adv-y="1000"  />

      
      <glyph glyph-name="uni2b" unicode="&#x2b;" d="M272 222L170 222L170 121L131 121L131 222L30 222L30 261L131 261L131 362L170 362L170 261L272 261L272 222L272 222L272 222Z"  horiz-adv-x="302" vert-adv-y="1000"  />

      
      <glyph glyph-name="uni2c" unicode="&#x2c;" d="M97 112Q126 112 140 94Q154 76 154 51Q154 33 147.50 16Q141-1 128.50-15Q116-29 98.50-38Q81-47 59-48L44-17Q71-17 90-4L90-2Q69 1 54.50 17Q40 33 40 55Q40 79 57 95.50Q74 112 97 112Z"  horiz-adv-x="194" vert-adv-y="1000"  />

      
      <glyph glyph-name="uni2d" unicode="&#x2d;" d="M272 222L30 222L30 261L272 261L272 222L272 222L272 222Z"  horiz-adv-x="302" vert-adv-y="1000"  />

      
      <glyph glyph-name="uni2e" unicode="&#x2e;" d="M97 112Q121 112 138 95.50Q155 79 155 55Q155 31 138 14.50Q121-2 97-2Q74-2 57 14.50Q40 31 40 55Q40 79 57 95.50Q74 112 97 112Z"  horiz-adv-x="195" vert-adv-y="1000"  />

      
      <glyph glyph-name="uni2f" unicode="&#x2f;" d="M30 0L199 483L235 483L66 0L30 0L30 0L30 0Z"  horiz-adv-x="265" vert-adv-y="1000"  />

      
      <glyph glyph-name="uni30" unicode="&#x30;" d="M438 242Q438 189 421.50 143Q405 97 376 63Q347 29 308.50 9.50Q270-10 226-10Q182-10 144 9.50Q106 29 77 63Q48 97 31.50 143Q15 189 15 242Q15 294 31.50 340Q48 386 77 420Q106 454 144 473.50Q182 493 226 493Q270 493 308.50 473.50Q347 454 376 420Q405 386 421.50 340Q438 294 438 242M130 242Q132 203 140.50 166Q149 129 163 100Q177 71 196.50 53.50Q216 36 240 36Q264 36 281 53.50Q298 71 308 100Q318 129 322 166Q326 203 323 242Q321 280 312.50 317Q304 354 290 383Q276 412 256.50 429.50Q237 447 213 447Q189 447 172 429.50Q155 412 144.50 383Q134 354 130.50 317Q127 280 130 242Z"  horiz-adv-x="453" vert-adv-y="1000"  />

      
      <glyph glyph-name="uni31" unicode="&#x31;" d="M34 381Q34 407 27.50 421.50Q21 436 10 444L12 452Q43 452 81 461Q119 470 145 483L145 71Q145 44 151.50 29.50Q158 15 169 7L167 0L12 0L10 7Q21 15 27.50 29.50Q34 44 34 71L34 381L34 381Z"  horiz-adv-x="179" vert-adv-y="1000"  />

      
      <glyph glyph-name="uni32" unicode="&#x32;" d="M345 131Q345 104 342 78.50Q339 53 329.50 33.50Q320 14 302 2.50Q284-9 255-9Q239-9 218-5Q197-1 173 3.50Q149 8 124 12Q99 16 77 16Q58 16 43 12.50Q28 9 17 0L10 0Q10 42 26.50 73.50Q43 105 68 131Q93 157 121.50 180Q150 203 175 229Q200 255 216.50 286Q233 317 233 360Q233 395 212.50 418Q192 441 157 441Q119 441 91.50 418Q64 395 41 344L34 344L49 495L57 495Q68 488 77.50 485.50Q87 483 99 483Q117 483 137.50 488Q158 493 188 493Q225 493 254 482.50Q283 472 303.50 453.50Q324 435 334.50 410Q345 385 345 357Q345 310 328 276.50Q311 243 285 219Q259 195 227 177.50Q195 160 164.50 144Q134 128 109 111.50Q84 95 72 72L77 67Q93 90 114 97.50Q135 105 159 105Q184 105 209 101Q234 97 257 96Q280 95 301 102Q322 109 338 131L345 131Z"  horiz-adv-x="355" vert-adv-y="1000"  />

      
      <glyph glyph-name="uni33" unicode="&#x33;" d="M39 483L56 483L48 413Q66 458 85.50 470.50Q105 483 131 483Q152 483 173 478.50Q194 474 215.50 471Q237 468 259.50 469.50Q282 471 307 483L315 483Q317 473 318 463.50Q319 454 319 445Q319 418 305 394.50Q291 371 270.50 350Q250 329 226 310.50Q202 292 182 276Q222 276 252.50 264.50Q283 253 303.50 234Q324 215 334.50 190.50Q345 166 345 140Q345 72 303 31Q261-10 189-10Q161-10 141.50-5Q122 0 95 0Q84 0 73.50-2.50Q63-5 51-12L44-12L15 161L22 161Q43 104 73 74Q103 44 145 44Q189 44 211 72Q233 100 233 142Q233 164 225.50 184Q218 204 202 219.50Q186 235 161.50 244Q137 253 103 253L103 257Q137 283 173.50 311.50Q210 340 239 369Q216 369 188.50 374.50Q161 380 133.50 381.50Q106 383 81 376Q56 369 39 344L25 344L39 483Z"  horiz-adv-x="360" vert-adv-y="1000"  />

      
      <glyph glyph-name="uni34" unicode="&#x34;" d="M326 71Q326 44 332.50 29.50Q339 15 350 7L347 0L193 0L191 7Q202 15 208.50 29.50Q215 44 215 71L215 126L205 111L22 111L0 143Q35 162 62.50 200Q90 238 108.50 286Q127 334 137 385.50Q147 437 147 483L258 483Q258 425 244.50 371Q231 317 204.50 271.50Q178 226 138 191Q98 156 44 137L44 136L215 136L215 250Q257 272 283 316Q309 360 309 420L326 420L326 71L326 71Z"  horiz-adv-x="360" vert-adv-y="1000"  />

      
      <glyph glyph-name="uni35" unicode="&#x35;" d="M142 44Q166 44 183.50 54.50Q201 65 213 81.50Q225 98 231 119.50Q237 141 237 163Q237 184 231.50 204.50Q226 225 215.50 240.50Q205 256 189 265.50Q173 275 153 275Q126 275 107.50 258.50Q89 242 80 222L25 262L47 483L63 483L57 425Q71 451 91.50 467Q112 483 142 483Q163 483 184.50 478Q206 473 228.50 470Q251 467 273.50 468.50Q296 470 319 483L327 483Q327 448 321.50 425.50Q316 403 306 389.50Q296 376 282 371Q268 366 252 366Q223 366 199 373Q175 380 143 380Q125 380 108 375Q91 370 77.50 358.50Q64 347 55 328.50Q46 310 43 283L51 278Q69 304 102 317Q135 330 173 330Q216 330 249 315.50Q282 301 304.50 277Q327 253 338 222.50Q349 192 349 160Q349 128 338 97.50Q327 67 305.50 43Q284 19 250.50 4.50Q217-10 172-10Q148-10 129.50-5Q111 0 92 0Q81 0 72-2.50Q63-5 51-12L44-12L15 161L22 161Q43 104 74.50 74Q106 44 142 44Z"  horiz-adv-x="362" vert-adv-y="1000"  />

      
      <glyph glyph-name="uni36" unicode="&#x36;" d="M224 493Q247 493 261.50 488Q276 483 289 483Q302 483 315 493L322 493L340 344L333 344Q316 395 291 418Q266 441 234 441Q210 441 188.50 424.50Q167 408 151 379Q135 350 125.50 309.50Q116 269 116 221L122 221Q130 276 162.50 302Q195 328 234 328Q271 328 299.50 314Q328 300 347.50 277.50Q367 255 376.50 225Q386 195 386 164Q386 132 375.50 101Q365 70 343 45Q321 20 288 5Q255-10 210-10Q162-10 125 9Q88 28 63.50 59.50Q39 91 26 133Q13 175 13 220Q13 268 25.50 316.50Q38 365 64 404.50Q90 444 130 468.50Q170 493 224 493M197 282Q180 282 169.50 269.50Q159 257 153.50 239Q148 221 147 201.50Q146 182 148 169Q149 155 154.50 132.50Q160 110 169.50 88.50Q179 67 192 51.50Q205 36 223 36Q238 36 247.50 46.50Q257 57 263 72.50Q269 88 271 106.50Q273 125 273 141Q273 158 268.50 182.50Q264 207 254.50 229Q245 251 230.50 266.50Q216 282 197 282Z"  horiz-adv-x="399" vert-adv-y="1000"  />

      
      <glyph glyph-name="uni37" unicode="&#x37;" d="M19 483L36 483L28 413Q46 458 67.50 470.50Q89 483 115 483Q136 483 157.50 478.50Q179 474 200.50 471Q222 468 245.50 469.50Q269 471 295 483L302 483Q307 469 310 450.50Q313 432 313 415Q313 372 303.50 340Q294 308 279.50 281Q265 254 248 228Q231 202 216.50 170Q202 138 192.50 97.50Q183 57 183 0L56 0Q56 66 73 112Q90 158 115 191Q140 224 169.50 248.50Q199 273 224 295.50Q249 318 265.50 343Q282 368 282 403L277 403Q266 383 248.50 376Q231 369 212 369Q189 369 162.50 374Q136 379 110 380Q84 381 60 374.50Q36 368 19 344L5 344L19 483Z"  horiz-adv-x="313" vert-adv-y="1000"  />

      
      <glyph glyph-name="uni38" unicode="&#x38;" d="M193-10Q161-10 129.50-2.50Q98 5 72.50 20.50Q47 36 31 60.50Q15 85 15 118Q15 146 25 167.50Q35 189 52 204.50Q69 220 90 232Q111 244 134 253Q115 264 97.50 277Q80 290 66 305Q52 320 43.50 338.50Q35 357 35 380Q35 403 45 423.50Q55 444 75 459.50Q95 475 124.50 484Q154 493 193 493Q270 493 310 459.50Q350 426 350 380Q350 356 341 337.50Q332 319 317 305Q302 291 282.50 280.50Q263 270 242 263Q266 250 289 236.50Q312 223 330 206.50Q348 190 359 168.50Q370 147 370 118Q370 85 354 60.50Q338 36 312.50 20.50Q287 5 255.50-2.50Q224-10 193-10M138 382Q138 349 156.50 326.50Q175 304 202 286Q221 301 234 325.50Q247 350 247 382Q247 412 230.50 429.50Q214 447 193 447Q171 447 154.50 429.50Q138 412 138 382M263 122Q263 159 235.50 184Q208 209 172 230Q150 213 136 185.50Q122 158 122 122Q122 82 142.50 59Q163 36 193 36Q223 36 243 59Q263 82 263 122Z"  horiz-adv-x="385" vert-adv-y="1000"  />

      
      <glyph glyph-name="uni39" unicode="&#x39;" d="M42 161Q64 99 96 71.50Q128 44 165 44Q213 44 242 82.50Q271 121 271 202L265 202Q250 167 224 152Q198 137 165 137Q130 137 102.50 153Q75 169 55.50 194.50Q36 220 25.50 252Q15 284 15 316Q15 350 25 382Q35 414 56 439Q77 464 108.50 478.50Q140 493 184 493Q232 493 267.50 472Q303 451 327 416Q351 381 362.50 336.50Q374 292 374 245Q374 197 362 151.50Q350 106 326 70Q302 34 265 12Q228-10 178-10Q151-10 136-5Q121 0 106 0Q95 0 88-2.50Q81-5 71-12L64-12L35 161L42 161M171 447Q153 447 143.50 432Q134 417 129.50 397Q125 377 125 355.50Q125 334 127 321Q128 307 133 284Q138 261 146 239Q154 217 166.50 201Q179 185 197 185Q210 185 219.50 194.50Q229 204 235 219.50Q241 235 244 254Q247 273 247 293Q247 319 241.50 346.50Q236 374 226.50 396.50Q217 419 203 433Q189 447 171 447Z"  horiz-adv-x="389" vert-adv-y="1000"  />

      
      <glyph glyph-name="uni3a" unicode="&#x3a;" d="M97 112Q121 112 138 95.50Q155 79 155 55Q155 31 138 14.50Q121-2 97-2Q74-2 57 14.50Q40 31 40 55Q40 79 57 95.50Q74 112 97 112M97 334Q121 334 138 317Q155 300 155 276Q155 253 138 236Q121 219 97 219Q74 219 57 236Q40 253 40 276Q40 300 57 317Q74 334 97 334Z"  horiz-adv-x="195" vert-adv-y="1000"  />

      
      <glyph glyph-name="uni3b" unicode="&#x3b;" d="M97 112Q126 112 140 94Q154 76 154 51Q154 33 147.50 16Q141-1 128.50-15Q116-29 98.50-38Q81-47 59-48L44-17Q71-17 90-4L90-2Q69 1 54.50 17Q40 33 40 55Q40 79 57 95.50Q74 112 97 112M97 334Q121 334 138 317Q155 300 155 276Q155 253 138 236Q121 219 97 219Q74 219 57 236Q40 253 40 276Q40 300 57 317Q74 334 97 334Z"  horiz-adv-x="195" vert-adv-y="1000"  />

      
      <glyph glyph-name="uni3c" unicode="&#x3c;" d="M252 351L46 242L252 132L252 93L10 222L10 261L252 390L252 351L252 351L252 351Z"  horiz-adv-x="272" vert-adv-y="1000"  />

      
      <glyph glyph-name="uni3d" unicode="&#x3d;" d="M30 263L30 302L272 302L272 263L272 263L30 263M30 181L30 220L272 220L272 181L272 181L30 181Z"  horiz-adv-x="302" vert-adv-y="1000"  />

      
      <glyph glyph-name="uni3e" unicode="&#x3e;" d="M20 351L20 351L20 390L262 261L262 222L20 93L20 132L226 242L20 351Z"  horiz-adv-x="272" vert-adv-y="1000"  />

      
      <glyph glyph-name="uni3f" unicode="&#x3f;" d="M139 112Q162 112 179 95.50Q196 79 196 55Q196 31 179 14.50Q162-2 139-2Q115-2 98 14.50Q81 31 81 55Q81 79 98 95.50Q115 112 139 112M160 134Q125 134 107.50 147Q90 160 90 182Q90 199 100 214.50Q110 230 125 245Q140 260 158 274.50Q176 289 191 305Q206 321 216 338.50Q226 356 226 377Q226 401 207.50 421Q189 441 157 441Q116 441 85.50 417.50Q55 394 27 341L20 341L36 495L43 495Q55 488 65.50 485.50Q76 483 88 483Q106 483 127.50 488Q149 493 179 493Q251 493 292.50 463Q334 433 334 376Q334 350 321 327Q308 304 289 283Q270 262 247 243Q224 224 205 205.50Q186 187 173 169.50Q160 152 160 134Z"  horiz-adv-x="364" vert-adv-y="1000"  />

      
      <glyph glyph-name="uni40" unicode="&#x40;" d="M436 36L512 36Q552 96 552 172Q552 224 534.50 270.50Q517 317 485 351.50Q453 386 409 406.50Q365 427 312 427Q259 427 213 406.50Q167 386 133 351.50Q99 317 80 270.50Q61 224 61 172Q61 119 80 73Q99 27 133-8Q167-43 213-63Q259-83 312-83Q338-83 360-78Q382-73 403-64L431-92Q373-117 312-117Q251-117 198-94.50Q145-72 105.50-32.50Q66 7 43 59.50Q20 112 20 172Q20 232 43 284.50Q66 337 105.50 376Q145 415 198 437.50Q251 460 312 460Q372 460 423.50 437.50Q475 415 512.50 376Q550 337 571.50 284.50Q593 232 593 172Q593 146 589.50 124Q586 102 578.50 81.50Q571 61 560.50 41.50Q550 22 537 0L350 0L344 42L340 42Q323 16 299.50 5.50Q276-5 251-5Q214-5 189 10.50Q164 26 150 51Q136 76 131.50 108Q127 140 130 172Q133 204 144.50 234Q156 264 175.50 287.50Q195 311 222 325Q249 339 284 339Q340 339 371 291Q372 296 372.50 299.50Q373 303 373 307L474 325L436 36M305 291Q288 291 275.50 279Q263 267 255 250Q247 233 242 215Q237 197 235 184Q233 170 233.50 146Q234 122 239.50 99Q245 76 257 59Q269 42 290 42Q305 42 316 53.50Q327 65 334.50 81Q342 97 345.50 114.50Q349 132 351 144Q353 157 353.50 181.50Q354 206 350 230.50Q346 255 335.50 273Q325 291 305 291Z"  horiz-adv-x="613" vert-adv-y="1000"  />

      
      <glyph glyph-name="uni41" unicode="&#x41;" d="M248 490L388 71Q397 44 408.50 29.50Q420 15 433 7L433 0L279 0Q277 2 276.50 3.50Q276 5 274 7Q282 15 284 29.50Q286 44 277 71L265 107L136 107L128 125L110 71Q101 44 103 29.50Q105 15 113 7Q111 5 110.50 3.50Q110 2 108 0L-8 0L-8 7Q6 15 17.50 29.50Q29 44 37 71L171 472L248 490M193 322Q179 280 165.50 238.50Q152 197 138 155L249 155L193 322Z"  horiz-adv-x="425" vert-adv-y="1000"  />

      
      <glyph glyph-name="uni42" unicode="&#x42;" d="M44 413Q44 439 37.50 453.50Q31 468 20 476L22 483Q48 483 69 484Q90 485 109 486.50Q128 488 146 489Q164 490 184 490Q232 490 265.50 480Q299 470 321 453Q343 436 353 413Q363 390 363 365Q363 333 343 304.50Q323 276 286 262Q334 245 358 209.50Q382 174 382 136Q382 109 370 83.50Q358 58 334 38Q310 18 274.50 5.50Q239-7 191-7Q151-7 112.50-3.50Q74 0 22 0L20 7Q31 15 37.50 29.50Q44 44 44 71L44 413M155 112Q155 91 151.50 73Q148 55 138 46L138 44L167 44Q193 44 212.50 52Q232 60 244.50 73.50Q257 87 263.50 104.50Q270 122 270 140Q270 158 263.50 176Q257 194 244 207.50Q231 221 211.50 229.50Q192 238 167 238L155 238L155 112M155 282L160 282Q185 282 202.50 289Q220 296 231 307.50Q242 319 246.50 333Q251 347 251 362Q251 377 246.50 390.50Q242 404 231 415Q220 426 202.50 432.50Q185 439 160 439L138 439L138 437Q148 429 151.50 414.50Q155 400 155 378L155 282Z"  horiz-adv-x="392" vert-adv-y="1000"  />

      
      <glyph glyph-name="uni43" unicode="&#x43;" d="M229 495Q266 495 290.50 489Q315 483 335 483Q348 483 356.50 485.50Q365 488 376 495L383 495L402 341L394 341Q371 391 338.50 415.50Q306 440 274 440Q246 440 219 428Q192 416 170.50 391Q149 366 135.50 329Q122 292 122 242Q122 192 134.50 154.50Q147 117 167.50 92.50Q188 68 213.50 56Q239 44 266 44Q310 44 345.50 74Q381 104 404 162L411 162L382-12L375-12Q363-5 352.50-2.50Q342 0 331 0Q312 0 285.50-6Q259-12 229-12Q174-12 133 10Q92 32 64.50 67.50Q37 103 23.50 148.50Q10 194 10 242Q10 289 23.50 334.50Q37 380 64.50 415.50Q92 451 133 473Q174 495 229 495Z"  horiz-adv-x="421" vert-adv-y="1000"  />

      
      <glyph glyph-name="uni44" unicode="&#x44;" d="M44 413Q44 439 37.50 453.50Q31 468 20 476L22 483Q73 483 116 486.50Q159 490 204 490Q259 490 301.50 469Q344 448 372.50 413.50Q401 379 416 334Q431 289 431 242Q431 194 416 149.50Q401 105 372.50 70Q344 35 301.50 14Q259-7 204-7Q180-7 161-6Q142-5 122-3.50Q102-2 78.50-1Q55 0 22 0L20 7Q31 15 37.50 29.50Q44 44 44 71L44 413M155 112Q155 91 151.50 73Q148 55 138 46L138 44L172 44Q199 44 225.50 56Q252 68 272.50 92.50Q293 117 306 154.50Q319 192 319 242Q319 292 305 329Q291 366 269 391Q247 416 219.50 428Q192 440 164 440L138 440L138 437Q148 428 151.50 410.50Q155 393 155 371L155 112Z"  horiz-adv-x="441" vert-adv-y="1000"  />

      
      <glyph glyph-name="uni45" unicode="&#x45;" d="M44 413Q44 439 37.50 453.50Q31 468 20 476L22 483L265 483Q288 483 301 485.50Q314 488 326 495L333 495L359 341L351 341Q333 372 310 391.50Q287 411 260 421.50Q233 432 202 436Q171 440 138 440L138 437Q148 428 151.50 410.50Q155 393 155 371L155 288Q182 288 204 298.50Q226 309 245 338L252 338L252 203L245 203Q226 232 204 242.50Q182 253 155 253L155 112Q155 91 151.50 73Q148 55 138 46L138 44Q210 44 264.50 69.50Q319 95 354 162L361 162L332-12L325-12Q313-5 300-2.50Q287 0 265 0L22 0L20 7Q31 15 37.50 29.50Q44 44 44 71L44 413L44 413Z"  horiz-adv-x="371" vert-adv-y="1000"  />

      
      <glyph glyph-name="uni46" unicode="&#x46;" d="M44 413Q44 439 37.50 453.50Q31 468 20 476L22 483L246 483Q269 483 282 485.50Q295 488 306 495L314 495L339 341L332 341Q314 370 293.50 389Q273 408 250 419.50Q227 431 199 435.50Q171 440 138 440L138 437Q148 428 151.50 410.50Q155 393 155 371L155 288Q182 288 204 298.50Q226 309 245 338L252 338L252 203L245 203Q226 232 204 242.50Q182 253 155 253L155 71Q155 44 161.50 29.50Q168 15 179 7L177 0L22 0L20 7Q31 15 37.50 29.50Q44 44 44 71L44 413L44 413Z"  horiz-adv-x="349" vert-adv-y="1000"  />

      
      <glyph glyph-name="uni47" unicode="&#x47;" d="M229 495Q266 495 290.50 489Q315 483 335 483Q348 483 356.50 485.50Q365 488 376 495L383 495L402 341L394 341Q371 391 339.50 415.50Q308 440 274 440Q246 440 219 428Q192 416 170.50 391Q149 366 135.50 329Q122 292 122 242Q122 192 134.50 154.50Q147 117 167.50 92.50Q188 68 213.50 56Q239 44 266 44Q280 44 292 48Q304 52 315 57Q310 64 306.50 71.50Q303 79 303 98L303 173Q303 202 288 219Q273 236 260 242L262 249L428 249L431 242Q422 232 416.50 219.50Q411 207 411 190L411 77Q411 59 413 52Q415 45 423 35L421 28Q400 28 380 21.50Q360 15 338 7.50Q316 0 289.50-6Q263-12 229-12Q174-12 133 10Q92 32 64.50 67.50Q37 103 23.50 148.50Q10 194 10 242Q10 289 23.50 334.50Q37 380 64.50 415.50Q92 451 133 473Q174 495 229 495Z"  horiz-adv-x="441" vert-adv-y="1000"  />

      
      <glyph glyph-name="uni48" unicode="&#x48;" d="M44 413Q44 439 37.50 453.50Q31 468 20 476L22 483L177 483L179 476Q168 468 161.50 453.50Q155 439 155 413L155 297L306 297L306 413Q306 439 299 453.50Q292 468 281 476L284 483L438 483L440 476Q429 468 422.50 453.50Q416 439 416 413L416 71Q416 44 422.50 29.50Q429 15 440 7L438 0L284 0L281 7Q292 15 299 29.50Q306 44 306 71L306 249L155 249L155 71Q155 44 161.50 29.50Q168 15 179 7L177 0L22 0L20 7Q31 15 37.50 29.50Q44 44 44 71L44 413L44 413Z"  horiz-adv-x="460" vert-adv-y="1000"  />

      
      <glyph glyph-name="uni49" unicode="&#x49;" d="M44 413Q44 439 37.50 453.50Q31 468 20 476L22 483L177 483L179 476Q168 468 161.50 453.50Q155 439 155 413L155 71Q155 44 161.50 29.50Q168 15 179 7L177 0L22 0L20 7Q31 15 37.50 29.50Q44 44 44 71L44 413L44 413Z"  horiz-adv-x="199" vert-adv-y="1000"  />

      
      <glyph glyph-name="uni4a" unicode="&#x4a;" d="M20 162Q38 111 63 77.50Q88 44 123 44Q152 44 167 65.50Q182 87 182 127L182 413Q182 439 175 453.50Q168 468 157 476L160 483L314 483L317 476Q306 468 299 453.50Q292 439 292 413L292 140Q292 122 293.50 110.50Q295 99 302 88L300 81Q283 81 271.50 67Q260 53 244 36.50Q228 20 202.50 6.50Q177-7 134-7Q114-7 100-3.50Q86 0 71 0Q57 0 41-12L34-12L13 162L20 162L20 162Z"  horiz-adv-x="330" vert-adv-y="1000"  />

      
      <glyph glyph-name="uni4b" unicode="&#x4b;" d="M44 413Q44 439 37.50 453.50Q31 468 20 476L22 483L177 483L179 476Q168 468 161.50 453.50Q155 439 155 413L155 268Q170 282 192.50 305.50Q215 329 236 355Q257 381 272 408Q287 435 287 457Q287 467 280 476L282 483L434 483L437 476Q405 461 379.50 442Q354 423 331.50 401.50Q309 380 288 356Q267 332 245 307L377 71Q392 44 407 29.50Q422 15 437 7Q437 5 437.50 3.50Q438 2 438 0L270 0L270 7Q276 15 277.50 29.50Q279 44 264 71L155 267L155 71Q155 44 160.50 29.50Q166 15 177 7L174 0L22 0L20 7Q31 15 37.50 29.50Q44 44 44 71L44 413L44 413Z"  horiz-adv-x="438" vert-adv-y="1000"  />

      
      <glyph glyph-name="uni4c" unicode="&#x4c;" d="M155 112Q155 91 151.50 73Q148 55 138 46L138 44Q174 44 202.50 50Q231 56 255 69.50Q279 83 299 106Q319 129 336 162L343 162L314-12L307-12Q295-5 282.50-2.50Q270 0 247 0L22 0L20 7Q31 15 37.50 29.50Q44 44 44 71L44 413Q44 439 37.50 453.50Q31 468 20 476L22 483L177 483L179 476Q168 468 161.50 453.50Q155 439 155 413L155 112L155 112Z"  horiz-adv-x="353" vert-adv-y="1000"  />

      
      <glyph glyph-name="uni4d" unicode="&#x4d;" d="M44 413Q44 439 37.50 453.50Q31 468 20 476L22 483L152 483Q166 410 195.50 348Q225 286 258 225Q289 286 315 347.50Q341 409 359 483L494 483L496 476Q485 468 478.50 453.50Q472 439 472 413L472 71Q472 44 478.50 29.50Q485 15 496 7L494 0L340 0L337 7Q348 15 355 29.50Q362 44 362 71L362 295Q324 224 295.50 154Q267 84 245 0L238 0Q230 42 217 80Q204 118 188 154Q172 190 153.50 225Q135 260 116 295L116 71Q116 44 123 29.50Q130 15 141 7L138 0L22 0L20 7Q31 15 37.50 29.50Q44 44 44 71L44 413L44 413Z"  horiz-adv-x="516" vert-adv-y="1000"  />

      
      <glyph glyph-name="uni4e" unicode="&#x4e;" d="M294 413Q294 439 287 453.50Q280 468 269 476L272 483L388 483L390 476Q379 468 372.50 453.50Q366 439 366 413L366 0L296 0Q281 50 261 89Q241 128 217.50 163Q194 198 168 233.50Q142 269 116 311L116 71Q116 44 123 29.50Q130 15 141 7L138 0L22 0L20 7Q31 15 37.50 29.50Q44 44 44 71L44 413Q44 439 37.50 453.50Q31 468 20 476L22 483L148 483Q157 444 173.50 409.50Q190 375 209.50 344Q229 313 251 283.50Q273 254 294 224L294 413L294 413Z"  horiz-adv-x="410" vert-adv-y="1000"  />

      
      <glyph glyph-name="uni4f" unicode="&#x4f;" d="M350 242Q347 276 338.50 309.50Q330 343 316 370Q302 397 282.50 415.50Q263 434 238 439Q220 419 217 384.50Q214 350 223.50 317Q233 284 254.50 259.50Q276 235 308 235Q308 202 293.50 183.50Q279 165 253 165Q229 165 212 178.50Q195 192 184.50 214.50Q174 237 169.50 265.50Q165 294 166 324Q167 354 173 383Q179 412 190 435Q171 426 157.50 406Q144 386 135.50 360Q127 334 124 303.50Q121 273 124 242Q127 204 136.50 168.50Q146 133 162.50 104.50Q179 76 201.50 59Q224 42 253 42Q281 42 301 59Q321 76 333 104.50Q345 133 349 168.50Q353 204 350 242M230 485Q238 489 245 490Q252 491 259 491Q302 491 339.50 468.50Q377 446 405 410.50Q433 375 448.50 330.50Q464 286 464 242Q464 189 446 143Q428 97 397.50 63Q367 29 325.50 9.50Q284-10 237-10Q190-10 148.50 9.50Q107 29 76.50 63Q46 97 28 143Q10 189 10 242Q10 285 22 323.50Q34 362 55.50 393.50Q77 425 106.50 448Q136 471 171 482Q190 488 203 488.50Q216 489 230 485Z"  horiz-adv-x="474" vert-adv-y="1000"  />

      
      <glyph glyph-name="uni50" unicode="&#x50;" d="M44 413Q44 439 37.50 453.50Q31 468 20 476L22 483Q74 483 110.50 486.50Q147 490 186 490Q278 490 327 450Q376 410 376 341Q376 272 327 233.50Q278 195 186 195L155 217L155 71Q155 44 161.50 29.50Q168 15 179 7L177 0L22 0L20 7Q31 15 37.50 29.50Q44 44 44 71L44 413M155 239L162 239Q192 239 211.50 248Q231 257 242.50 272Q254 287 259 305Q264 323 264 341Q264 359 259 377Q254 395 242.50 408.50Q231 422 211.50 430.50Q192 439 162 439L138 439L138 437Q148 428 151.50 410Q155 392 155 371L155 239Z"  horiz-adv-x="386" vert-adv-y="1000"  />

      
      <glyph glyph-name="uni51" unicode="&#x51;" d="M248 11Q206 12 163.50 25.50Q121 39 87 67Q53 95 31.50 138.50Q10 182 10 242Q10 294 28 340Q46 386 76.50 420Q107 454 148.50 473.50Q190 493 237 493Q284 493 325.50 473.50Q367 454 397.50 420Q428 386 446 340Q464 294 464 242Q464 192 449.50 151Q435 110 410 77Q385 44 351 19Q317-6 277-22Q293-28 315.50-34.50Q338-41 362.50-43Q387-45 410.50-41.50Q434-38 453-26Q453-85 431-113.50Q409-142 367-142Q332-142 299-130.50Q266-119 235-105Q204-91 175.50-79.50Q147-68 122-68L122-60Q173-48 215-26.50Q257-5 287 30.50Q317 66 333.50 118Q350 170 350 242Q347 279 337 315Q327 351 311 379Q295 407 272 424Q249 441 221 441Q193 441 173 424Q153 407 141 379Q129 351 125 315Q121 279 124 242Q127 204 136.50 165.50Q146 127 162.50 95.50Q179 64 201.50 44Q224 24 253 24L248 11Z"  horiz-adv-x="474" vert-adv-y="1000"  />

      
      <glyph glyph-name="uni52" unicode="&#x52;" d="M44 413Q44 439 37.50 453.50Q31 468 20 476L22 483Q74 483 110.50 486.50Q147 490 186 490Q278 490 330.50 450Q383 410 383 341Q383 291 353.50 258Q324 225 276 214Q298 190 314.50 161Q331 132 345 103Q359 74 373.50 48.50Q388 23 405 7L405 0L256 0Q256 14 245 45.50Q234 77 218 110.50Q202 144 185 171.50Q168 199 155 205L155 71Q155 44 160.50 29.50Q166 15 177 7L174 0L22 0L20 7Q31 15 37.50 29.50Q44 44 44 71L44 413M155 237Q205 237 238 262Q271 287 271 341Q271 359 265 377Q259 395 246 408.50Q233 422 212.50 430.50Q192 439 162 439L138 439L138 437Q148 428 151.50 410Q155 392 155 371L155 237Z"  horiz-adv-x="405" vert-adv-y="1000"  />

      
      <glyph glyph-name="uni53" unicode="&#x53;" d="M169 493Q188 493 201.50 491.50Q215 490 224.50 488Q234 486 242 484.50Q250 483 258 483Q269 483 276 485.50Q283 488 294 495L301 495L320 341L312 341Q289 392 255.50 416.50Q222 441 186 441Q160 441 143.50 426Q127 411 127 391Q127 372 144.50 352Q162 332 189 311Q216 290 246.50 267Q277 244 304 219Q331 194 348.50 166Q366 138 366 107Q366 75 351.50 53Q337 31 313.50 17Q290 3 260.50-3.50Q231-10 202-10Q172-10 143-5Q114 0 95 0Q84 0 73.50-2.50Q63-5 51-12L44-12L15 162L22 162Q51 99 95.50 70.50Q140 42 186 42Q221 42 237 59.50Q253 77 253 99Q253 120 235.50 141Q218 162 191.50 182.50Q165 203 134 225Q103 247 76.50 270.50Q50 294 32.50 320Q15 346 15 376Q15 437 58 465Q101 493 169 493Z"  horiz-adv-x="376" vert-adv-y="1000"  />

      
      <glyph glyph-name="uni54" unicode="&#x54;" d="M265 71Q265 44 272 29.50Q279 15 290 7L287 0L133 0L130 7Q141 15 148 29.50Q155 44 155 71L155 441Q105 434 75.50 409Q46 384 20 341L13 341L29 495L36 495Q48 488 61 485.50Q74 483 97 483L323 483Q346 483 359 485.50Q372 488 384 495L391 495L407 341L400 341Q374 384 344.50 409Q315 434 265 441L265 71Z"  horiz-adv-x="420" vert-adv-y="1000"  />

      
      <glyph glyph-name="uni55" unicode="&#x55;" d="M212-7Q168-7 139.50 6.50Q111 20 91 36.50Q71 53 56.50 67Q42 81 25 81L23 88Q30 99 31 110.50Q32 122 32 140L32 425Q32 442 26.50 454Q21 466 13 476L15 483L163 483L165 476Q154 468 147.50 453.50Q141 439 141 413L141 134Q141 116 146.50 100Q152 84 162.50 71.50Q173 59 188 51.50Q203 44 221 44Q257 44 279 70.50Q301 97 301 131L302 413Q302 439 295 453.50Q288 468 277 476L280 483L391 483L393 476Q385 466 379.50 454Q374 442 374 425L374 140Q374 122 375.50 110.50Q377 99 384 88L381 81Q364 81 352.50 67Q341 53 324.50 36.50Q308 20 282 6.50Q256-7 212-7Z"  horiz-adv-x="406" vert-adv-y="1000"  />

      
      <glyph glyph-name="uni56" unicode="&#x56;" d="M37 413Q28 439 17 453.50Q6 468-8 476L-8 483L146 483L151 476Q143 468 141 453.50Q139 439 148 413L234 150L237 127L241 150L327 413Q336 439 334 453.50Q332 468 324 476L329 483L442 483L442 476Q428 468 417 453.50Q406 439 397 413L261 0L172 0L37 413L37 413Z"  horiz-adv-x="434" vert-adv-y="1000"  />

      
      <glyph glyph-name="uni57" unicode="&#x57;" d="M37 413Q28 439 17 453.50Q6 468-8 476L-8 483L146 483L151 476Q143 468 141 453.50Q139 439 148 413L234 150L237 127L241 150L286 288L245 413Q236 439 227 453Q218 467 205 476L205 483L347 483L352 476Q345 466 345.50 447Q346 428 351 413L437 150L441 127L444 150L530 413Q539 439 537 453.50Q535 468 527 476L532 483L645 483L645 476Q632 468 620.50 453.50Q609 439 600 413L465 0L380 0L321 181L261 0L172 0L37 413L37 413Z"  horiz-adv-x="637" vert-adv-y="1000"  />

      
      <glyph glyph-name="uni58" unicode="&#x58;" d="M52 412Q37 439 22 453.50Q7 468-8 476L-8 483L145 483L151 476Q145 468 146.50 453.50Q148 439 163 412L223 305L284 413Q299 439 300.50 453.50Q302 468 295 476L302 483L416 483L416 476Q401 468 386 453.50Q371 439 356 413L266 252L354 252L349 231L265 231L356 71Q371 44 386 29.50Q401 15 416 7L416 0L263 0L257 7Q263 15 261.50 29.50Q260 44 245 71L185 178L124 71Q109 44 108 29.50Q107 15 113 7L106 0L-8 0L-8 7Q7 15 22 29.50Q37 44 52 71L142 231L55 231L60 252L143 252L52 412L52 412Z"  horiz-adv-x="408" vert-adv-y="1000"  />

      
      <glyph glyph-name="uni59" unicode="&#x59;" d="M52 412Q37 439 22 453.50Q7 468-8 476L-8 483L145 483L151 476Q145 468 146.50 453.50Q148 439 163 412L220 311L223 288L227 311L284 413Q299 439 300.50 453.50Q302 468 295 476L302 483L416 483L416 476Q401 468 386 453.50Q371 439 356 413L260 241L260 71Q260 44 266.50 29.50Q273 15 284 7L282 0L127 0L125 7Q136 15 142.50 29.50Q149 44 149 71L149 241L52 412L52 412Z"  horiz-adv-x="408" vert-adv-y="1000"  />

      
      <glyph glyph-name="uni5a" unicode="&#x5a;" d="M240 441Q208 441 178.50 437.50Q149 434 121.50 423.50Q94 413 68.50 393.50Q43 374 21 341L14 341L30 495L37 495Q49 488 62 485.50Q75 483 97 483L370 483L370 476L246 252L342 252L337 231L235 231L131 44Q165 44 198 47.50Q231 51 261 63Q291 75 317.50 98Q344 121 367 162L375 162L346-12L338-12Q327-5 314-2.50Q301 0 278 0L0 0L0 7L124 231L43 231L48 252L136 252L240 441L240 441Z"  horiz-adv-x="385" vert-adv-y="1000"  />

      
      <glyph glyph-name="uni5b" unicode="&#x5b;" d="M30 535L142 535L142 513L88 513L88-30L142-30L142-52L30-52L30 535L30 535L30 535Z"  horiz-adv-x="157" vert-adv-y="1000"  />

      
      <glyph glyph-name="uni5c" unicode="&#x5c;" d="M235 0L235 0L199 0L30 483L66 483L235 0Z"  horiz-adv-x="265" vert-adv-y="1000"  />

      
      <glyph glyph-name="uni5d" unicode="&#x5d;" d="M127 535L127 535L127-52L15-52L15-30L69-30L69 513L15 513L15 535L127 535Z"  horiz-adv-x="157" vert-adv-y="1000"  />

      
      <glyph glyph-name="uni5e" unicode="&#x5e;" d="M15 351L108 488L200 351L170 338L108 431L45 338L15 351L15 351L15 351Z"  horiz-adv-x="215" vert-adv-y="1000"  />

      
      <glyph glyph-name="uni5f" unicode="&#x5f;" d="M441-36L30-36L30 0L441 0L441-36L441-36L441-36Z"  horiz-adv-x="471" vert-adv-y="1000"  />

      
      <glyph glyph-name="uni60" unicode="&#x60;" d="M15 451L86 488L147 387L129 378L15 451L15 451L15 451Z"  horiz-adv-x="162" vert-adv-y="1000"  />

      
      <glyph glyph-name="uni61" unicode="&#x61;" d="M108 334Q130 334 146 336.50Q162 339 182 339Q208 339 233 331.50Q258 324 277 308.50Q296 293 307.50 269.50Q319 246 319 214L319 71Q319 44 325.50 29.50Q332 15 343 7L341 0L217 0L212 49L208 49Q190 21 162 8Q134-5 105-5Q65-5 37.50 17.50Q10 40 10 80Q10 117 31.50 137.50Q53 158 84 170Q115 182 149 190.50Q183 199 208 211Q208 251 188.50 271Q169 291 143 291Q118 291 94 275Q70 259 55 227L48 227L60 343L67 343Q76 338 87 336Q98 334 108 334M208 189Q194 179 179 169Q164 159 151.50 147Q139 135 130.50 121Q122 107 122 88Q122 68 132 55Q142 42 159 42Q177 42 192.50 58Q208 74 208 112L208 189Z"  horiz-adv-x="353" vert-adv-y="1000"  />

      
      <glyph glyph-name="uni62" unicode="&#x62;" d="M44 413Q44 439 37.50 453.50Q31 468 20 476L22 483L155 505L155 291Q170 316 192 327.50Q214 339 235 339Q273 339 301.50 324.50Q330 310 349 285.50Q368 261 377.50 230Q387 199 387 166Q387 134 377.50 103Q368 72 349 48Q330 24 301.50 9.50Q273-5 236-5Q213-5 191 6.50Q169 18 155 42L151 42L146 0L22 0L20 7Q31 15 37.50 29.50Q44 44 44 71L44 413M155 189Q155 170 159 144.50Q163 119 171 96.50Q179 74 192.50 58Q206 42 225 42Q238 42 247.50 50Q257 58 263 71Q269 84 272 101.50Q275 119 275 138Q275 164 270 191.50Q265 219 255 241Q245 263 231 277Q217 291 199 291Q183 291 174.50 279.50Q166 268 161.50 252Q157 236 156 218.50Q155 201 155 189Z"  horiz-adv-x="397" vert-adv-y="1000"  />

      
      <glyph glyph-name="uni63" unicode="&#x63;" d="M122 173Q122 148 130.50 124.50Q139 101 154 82.50Q169 64 189.50 53Q210 42 234 42Q254 42 270.50 49.50Q287 57 302 70L304 63Q296 49 285.50 37Q275 25 261 15.50Q247 6 228 0.50Q209-5 184-5Q148-5 116.50 8Q85 21 61 44Q37 67 23.50 98.50Q10 130 10 167Q10 203 23.50 234.50Q37 266 61 289.50Q85 313 116.50 326Q148 339 184 339Q206 339 217 336.50Q228 334 242 334Q250 334 258 335Q266 336 276 343L283 343L297 230L290 230Q256 291 208 291Q171 291 146.50 261.50Q122 232 122 173Z"  horiz-adv-x="314" vert-adv-y="1000"  />

      
      <glyph glyph-name="uni64" unicode="&#x64;" d="M241 413Q241 439 234 453.50Q227 468 216 476L219 483L351 505L351 71Q351 44 358 29.50Q365 15 376 7L373 0L249 0L244 42L241 42Q227 16 205 5.50Q183-5 158-5Q122-5 94 10.50Q66 26 47.50 51.50Q29 77 19.50 109Q10 141 10 174Q10 207 18.50 236.50Q27 266 43.50 289Q60 312 85.50 325.50Q111 339 145 339Q203 339 241 291L241 413M174 291Q160 291 150 282Q140 273 134 258.50Q128 244 125 224.50Q122 205 122 184Q122 159 127 133.50Q132 108 141 88Q150 68 163 55Q176 42 193 42Q205 42 214 50.50Q223 59 229 73Q235 87 238 105.50Q241 124 241 144Q241 170 236.50 196Q232 222 223.50 243Q215 264 202.50 277.50Q190 291 174 291Z"  horiz-adv-x="386" vert-adv-y="1000"  />

      
      <glyph glyph-name="uni65" unicode="&#x65;" d="M232 176Q232 231 215.50 261Q199 291 175 291Q159 291 148 282Q137 273 130.50 259.50Q124 246 121 230Q118 214 118 201Q118 185 120.50 168.50Q123 152 128 136L136 157L232 176M130 130Q145 88 179 65Q213 42 252 42Q291 42 326 70L328 63Q308 29 273 12Q238-5 193-5Q155-5 122 7Q89 19 64 41.50Q39 64 24.50 96Q10 128 10 167Q10 203 23.50 234.50Q37 266 61 289.50Q85 313 116.50 326Q148 339 184 339Q212 339 239 327.50Q266 316 287 294.50Q308 273 319.50 241Q331 209 328 168L130 130Z"  horiz-adv-x="349" vert-adv-y="1000"  />

      
      <glyph glyph-name="uni66" unicode="&#x66;" d="M160 71Q160 44 166.50 29.50Q173 15 184 7L182 0L27 0L25 7Q36 15 42.50 29.50Q49 44 49 71L49 302L25 302L25 328L102 328L102 332Q62 340 37.50 361.50Q13 383 13 417Q13 447 41.50 468.50Q70 490 110 490Q130 490 147 488Q164 486 178 486Q186 486 195 487.50Q204 489 214 495L221 495L235 382L228 382Q212 410 193.50 425Q175 440 153 440Q131 440 120 426.50Q109 413 109 396Q109 386 114 374.50Q119 363 130.50 352.50Q142 342 161 335Q180 328 208 328L208 302L160 302L160 71Z"  horiz-adv-x="207" vert-adv-y="1000"  />

      
      <glyph glyph-name="uni67" unicode="&#x67;" d="M178 56Q134 56 104 69Q90 69 82 63.50Q74 58 74 51Q74 43 82.50 37Q91 31 108 31Q139 31 174.50 38Q210 45 242 45Q293 45 319.50 20Q346-5 346-38Q346-66 333-86Q320-106 300-119Q280-132 254.50-138Q229-144 205-144Q185-144 167-142.50Q149-141 132-140Q115-139 99.50-141.50Q84-144 70-151L62-151L48-40Q28-32 19-17Q10-2 10 13Q10 36 28 55.50Q46 75 84 79Q53 98 38 127.50Q23 157 23 191Q23 219 33 246Q43 273 63 293.50Q83 314 111.50 326.50Q140 339 178 339Q188 339 203 336Q218 333 233 326L328 383L346 302L269 302Q300 283 316.50 253Q333 223 333 192Q333 165 323 140.50Q313 116 293 97Q273 78 244 67Q215 56 178 56M71-45Q78-62 90-74.50Q102-87 116.50-95.50Q131-104 147-108Q163-112 178-112Q210-112 227-99.50Q244-87 244-70Q244-51 229-43.50Q214-36 197-36Q183-36 167.50-38Q152-40 135.50-42.50Q119-45 102.50-46Q86-47 71-45M169 307Q157 307 150 294Q143 281 139.50 263Q136 245 135.50 226.50Q135 208 136 196Q137 183 140.50 164.50Q144 146 150.50 128.50Q157 111 166 98.50Q175 86 187 86Q197 86 204 95.50Q211 105 214.50 119Q218 133 219.50 149Q221 165 221 179Q221 193 218 214.50Q215 236 209 256.50Q203 277 193 292Q183 307 169 307Z"  horiz-adv-x="346" vert-adv-y="1000"  />

      
      <glyph glyph-name="uni68" unicode="&#x68;" d="M44 413Q44 439 37.50 453.50Q31 468 20 476L22 483L151 505L151 283L155 283Q172 309 195.50 322.50Q219 336 245 336Q294 336 326 304.50Q358 273 358 224L358 68Q358 45 363.50 30.50Q369 16 380 7L378 0L226 0L223 7Q234 15 240.50 29.50Q247 44 247 71L247 231Q247 259 232 271Q217 283 200 283Q183 283 169 270Q155 257 155 228L155 71Q155 44 161.50 29.50Q168 15 179 7L177 0L22 0L20 7Q31 15 37.50 29.50Q44 44 44 71L44 413L44 413Z"  horiz-adv-x="390" vert-adv-y="1000"  />

      
      <glyph glyph-name="uni69" unicode="&#x69;" d="M44 232Q44 258 37.50 272.50Q31 287 20 295L22 302L155 334L155 71Q155 44 161.50 29.50Q168 15 179 7L177 0L22 0L20 7Q31 15 37.50 29.50Q44 44 44 71L44 232M92 344Q81 363 64 379.50Q47 396 28 407L28 412Q47 423 64 439.50Q81 456 92 475L97 475Q108 456 125.50 439.50Q143 423 161 412L161 407Q143 396 125.50 379.50Q108 363 97 344L92 344Z"  horiz-adv-x="189" vert-adv-y="1000"  />

      
      <glyph glyph-name="uni6a" unicode="&#x6a;" d="M42 232Q42 258 35 272.50Q28 287 17 295L20 302L152 334L152-15Q152-70 122-104Q92-138 35-138Q-8-138-40-115L-40-107Q-31-110-21-110Q4-110 23-94Q42-78 42-39L42 232M90 344Q79 363 61.50 379.50Q44 396 26 407L26 412Q44 423 61.50 439.50Q79 456 90 475L95 475Q106 456 123 439.50Q140 423 159 412L159 407Q140 396 123 379.50Q106 363 95 344L90 344Z"  horiz-adv-x="167" vert-adv-y="1000"  />

      
      <glyph glyph-name="uni6b" unicode="&#x6b;" d="M44 413Q44 439 37.50 453.50Q31 468 20 476L22 483L155 505L155 174Q173 188 191 204Q209 220 224 239Q239 258 248 281.50Q257 305 257 334L385 334L385 326Q344 308 304 281.50Q264 255 233 223L322 71Q338 44 353.50 29.50Q369 15 385 7L385 0L232 0L225 7Q233 30 211 71L155 172L155 71Q155 53 159.50 34.50Q164 16 174 7L172 0L22 0L20 7Q31 15 37.50 29.50Q44 44 44 71L44 413L44 413Z"  horiz-adv-x="385" vert-adv-y="1000"  />

      
      <glyph glyph-name="uni6c" unicode="&#x6c;" d="M44 413Q44 439 37.50 453.50Q31 468 20 476L22 483L155 505L155 71Q155 44 161.50 29.50Q168 15 179 7L177 0L22 0L20 7Q31 15 37.50 29.50Q44 44 44 71L44 413L44 413Z"  horiz-adv-x="189" vert-adv-y="1000"  />

      
      <glyph glyph-name="uni6d" unicode="&#x6d;" d="M44 232Q44 258 37.50 272.50Q31 287 20 295L22 302L151 334L151 285L155 285Q173 311 196.50 323.50Q220 336 245 336Q281 336 307.50 318Q334 300 347 271Q361 298 385.50 317Q410 336 445 336Q495 336 525.50 304.50Q556 273 556 224L556 68Q556 45 561.50 30.50Q567 16 578 7L576 0L429 0L426 7Q437 15 441.50 29.50Q446 44 446 71L446 231Q446 259 432 271Q418 283 401 283Q384 283 370 269Q356 255 356 224L356 68Q356 23 375 7L373 0L228 0L226 7Q237 15 241 29.50Q245 44 245 71L245 231Q245 259 231 271Q217 283 200 283Q183 283 169 270Q155 257 155 228L155 71Q155 44 161.50 29.50Q168 15 179 7L177 0L22 0L20 7Q31 15 37.50 29.50Q44 44 44 71L44 232L44 232Z"  horiz-adv-x="588" vert-adv-y="1000"  />

      
      <glyph glyph-name="uni6e" unicode="&#x6e;" d="M44 232Q44 258 37.50 272.50Q31 287 20 295L22 302L151 334L151 285L155 285Q190 336 242 336Q292 336 322.50 304.50Q353 273 353 224L353 68Q353 45 358.50 30.50Q364 16 375 7L373 0L221 0L218 7Q229 15 236 29.50Q243 44 243 71L243 231Q243 259 230 271Q217 283 200 283Q183 283 169 270Q155 257 155 228L155 71Q155 44 161.50 29.50Q168 15 179 7L177 0L22 0L20 7Q31 15 37.50 29.50Q44 44 44 71L44 232L44 232Z"  horiz-adv-x="385" vert-adv-y="1000"  />

      
      <glyph glyph-name="uni6f" unicode="&#x6f;" d="M184 339Q220 339 251.50 326Q283 313 307 289.50Q331 266 344.50 234.50Q358 203 358 167Q358 130 344.50 98.50Q331 67 307 44Q283 21 251.50 8Q220-5 184-5Q148-5 116.50 8Q85 21 61 44Q37 67 23.50 98.50Q10 130 10 167Q10 203 23.50 234.50Q37 266 61 289.50Q85 313 116.50 326Q148 339 184 339M171 303Q157 303 147.50 294Q138 285 132 269.50Q126 254 123.50 233.50Q121 213 121 191Q121 162 126.50 133.50Q132 105 142 82Q152 59 166 44.50Q180 30 197 30Q223 30 234.50 61.50Q246 93 246 135Q246 164 241 194Q236 224 226 248Q216 272 202.50 287.50Q189 303 171 303Z"  horiz-adv-x="368" vert-adv-y="1000"  />

      
      <glyph glyph-name="uni70" unicode="&#x70;" d="M155 291Q170 316 192 327.50Q214 339 235 339Q273 339 301.50 324.50Q330 310 349 285.50Q368 261 377.50 230Q387 199 387 166Q387 134 377.50 103.50Q368 73 349.50 49Q331 25 304 10Q277-5 243-5Q217-5 194.50 6Q172 17 155 42L151 42L151-65Q151-91 158-105.50Q165-120 176-128L173-135L22-135L20-128Q31-120 37.50-105.50Q44-91 44-65L44 232Q44 258 37.50 272.50Q31 287 20 295L22 302L155 334L155 291M155 189Q155 170 159 144.50Q163 119 171 96.50Q179 74 192.50 58Q206 42 225 42Q238 42 247.50 50Q257 58 263 71Q269 84 272 101.50Q275 119 275 138Q275 164 270 191.50Q265 219 255 241Q245 263 231 277Q217 291 199 291Q183 291 174.50 279.50Q166 268 161.50 252Q157 236 156 218.50Q155 201 155 189Z"  horiz-adv-x="397" vert-adv-y="1000"  />

      
      <glyph glyph-name="uni71" unicode="&#x71;" d="M351-65Q351-91 358-105.50Q365-120 376-128L373-135L222-135L220-128Q231-120 237.50-105.50Q244-91 244-65L244 42L241 42Q227 16 205 5.50Q183-5 158-5Q122-5 94 10.50Q66 26 47.50 51.50Q29 77 19.50 109Q10 141 10 174Q10 207 18.50 236.50Q27 266 43.50 289Q60 312 85.50 325.50Q111 339 145 339Q203 339 241 289L241 307L351 334L351-65M174 291Q160 291 150 282Q140 273 134 258.50Q128 244 125 224.50Q122 205 122 184Q122 159 127 133.50Q132 108 141 88Q150 68 163 55Q176 42 193 42Q205 42 214 50.50Q223 59 229 73Q235 87 238 105.50Q241 124 241 144Q241 170 236.50 196Q232 222 223.50 243Q215 264 202.50 277.50Q190 291 174 291Z"  horiz-adv-x="386" vert-adv-y="1000"  />

      
      <glyph glyph-name="uni72" unicode="&#x72;" d="M273 343L284 230L277 230Q266 259 248 271Q230 283 213 283Q187 283 171 263Q155 243 155 210L155 71Q155 44 161.50 29.50Q168 15 179 7L177 0L22 0L20 7Q31 15 37.50 29.50Q44 44 44 71L44 232Q44 258 37.50 272.50Q31 287 20 295L22 302L151 334L151 280L155 280Q159 308 172 319Q185 330 201 333Q217 336 234.50 336Q252 336 266 343L273 343Z"  horiz-adv-x="294" vert-adv-y="1000"  />

      
      <glyph glyph-name="uni73" unicode="&#x73;" d="M15 256Q15 278 24 294Q33 310 48 320Q63 330 81.50 334.50Q100 339 119 339Q134 339 153 336Q172 333 189 333Q216 333 232 343L240 343L254 230L246 230Q217 291 167 291Q148 291 136 281.50Q124 272 124 258Q124 234 148.50 214.50Q173 195 202.50 175.50Q232 156 256.50 133.50Q281 111 281 79Q281 45 255.50 20Q230-5 181-5Q160-5 139-2.50Q118 0 97 0Q74 0 62.50-2.50Q51-5 39-12L32-12L15 104L22 104Q39 75 68 58.50Q97 42 124 42Q147 42 159 52.50Q171 63 171 81Q171 96 159.50 109Q148 122 130.50 135Q113 148 93 161Q73 174 55.50 188.50Q38 203 26.50 219.50Q15 236 15 256Z"  horiz-adv-x="296" vert-adv-y="1000"  />

      
      <glyph glyph-name="uni74" unicode="&#x74;" d="M35 235Q35 262 41.50 276.50Q48 291 59 299L59 302L8 302L8 326Q53 326 84 352Q115 378 115 423L145 423L145 328L196 328L196 302L145 302L145 84Q145 58 158.50 42Q172 26 198 26L198 18Q184 8 168 1.50Q152-5 132-5Q106-5 87.50 4Q69 13 57.50 27Q46 41 40.50 59.50Q35 78 35 96L35 235L35 235Z"  horiz-adv-x="208" vert-adv-y="1000"  />

      
      <glyph glyph-name="uni75" unicode="&#x75;" d="M247 49Q233 20 209 7.50Q185-5 162-5Q107-5 74 28Q41 61 41 115L41 232Q41 258 34.50 272.50Q28 287 17 295L19 302L152 334L152 103Q152 74 167 62.50Q182 51 199 51Q216 51 231.50 64Q247 77 247 105L247 232Q247 258 241 272.50Q235 287 225 296L227 303L357 334L357 71Q357 44 364 29.50Q371 15 382 7L379 0L255 0L250 49L247 49L247 49Z"  horiz-adv-x="392" vert-adv-y="1000"  />

      
      <glyph glyph-name="uni76" unicode="&#x76;" d="M30 263Q22 289 13.50 303Q5 317-8 326L-8 334L142 334L146 326Q138 318 135 303.50Q132 289 140 263L195 72L199 51L202 72L256 263Q264 289 261 303.50Q258 318 249 326L254 334L349 334L349 326Q335 318 327 303.50Q319 289 311 263L238 0L105 0L30 263L30 263Z"  horiz-adv-x="341" vert-adv-y="1000"  />

      
      <glyph glyph-name="uni77" unicode="&#x77;" d="M218 263Q210 289 202 303Q194 317 181 326L181 334L331 334L335 326Q327 318 324 303.50Q321 289 329 263L384 72L388 51L391 72L445 263Q453 289 449.50 303.50Q446 318 438 326L443 334L537 334L537 326Q524 318 516 303.50Q508 289 500 263L426 0L294 0L264 107L234 0L105 0L30 263Q22 289 13.50 303Q5 317-8 326L-8 334L142 334L146 326Q138 318 135 303.50Q132 289 140 263L195 72L199 51L202 72L237 197L218 263L218 263Z"  horiz-adv-x="529" vert-adv-y="1000"  />

      
      <glyph glyph-name="uni78" unicode="&#x78;" d="M55 263Q39 289 23.50 303.50Q8 318-8 326L-8 334L149 334L156 326Q151 318 150 303.50Q149 289 166 263L195 216L224 263Q240 289 239.50 303.50Q239 318 233 326L240 334L347 334L347 326Q331 318 315.50 303.50Q300 289 284 263L225 166L284 71Q300 44 315.50 29.50Q331 15 347 7L347 0L189 0L183 7Q188 15 189 29.50Q190 44 173 71L144 118L115 71Q98 44 99 29.50Q100 15 106 7L99 0L-8 0L-8 7Q8 15 23 29.50Q38 44 55 71L114 167L55 263L55 263Z"  horiz-adv-x="339" vert-adv-y="1000"  />

      
      <glyph glyph-name="uni79" unicode="&#x79;" d="M30 263Q22 289 13.50 303Q5 317-8 326L-8 334L142 334L146 326Q138 318 135 303.50Q132 289 140 263L195 72L199 51L202 72L256 263Q264 289 261 303.50Q258 318 249 326L254 334L349 334L349 326Q335 318 327 303.50Q319 289 311 263L236-8Q229-33 218-56Q207-79 190.50-96.50Q174-114 152-124.50Q130-135 102-135Q88-135 80-134Q72-133 64-133Q59-133 52-134Q45-135 39-140L32-140L19-34L26-34Q52-92 99-92Q132-92 152.50-67Q173-42 182 0L105 0L30 263L30 263Z"  horiz-adv-x="341" vert-adv-y="1000"  />

      
      <glyph glyph-name="uni7a" unicode="&#x7a;" d="M138 40Q203 40 249 52.50Q295 65 324 104L331 104L312-7L305-7Q295-3 283.50-1.50Q272 0 254 0L5 0L5 7L105 156L53 156L58 177L119 177L198 294Q142 294 101.50 282Q61 270 26 230L19 230L30 341L38 341Q46 336 56 335Q66 334 84 334L331 334L331 326L231 177L291 177L286 156L217 156L138 40L138 40Z"  horiz-adv-x="341" vert-adv-y="1000"  />

      
      <glyph glyph-name="uni7b" unicode="&#x7b;" d="M122 298Q122 272 103.50 258.50Q85 245 62 242Q85 238 103.50 224.50Q122 211 122 185Q122 175 119.50 157.50Q117 140 114.50 119Q112 98 109.50 75Q107 52 107 32Q107 2 128.50-14Q150-30 176-30L176-52Q158-52 135.50-47Q113-42 93.50-30.50Q74-19 60.50-1.50Q47 16 47 42Q47 76 55.50 114.50Q64 153 64 202Q64 216 53.50 226.50Q43 237 30 237L30 246Q43 246 53.50 256.50Q64 267 64 281Q64 330 55.50 368.50Q47 407 47 441Q47 466 60.50 484Q74 502 93.50 513.50Q113 525 135.50 530Q158 535 176 535L176 513Q150 513 128.50 497Q107 481 107 451Q107 431 109.50 408.50Q112 386 114.50 365Q117 344 119.50 326Q122 308 122 298Z"  horiz-adv-x="191" vert-adv-y="1000"  />

      
      <glyph glyph-name="uni7c" unicode="&#x7c;" d="M30-60L30 544L66 544L66-60L30-60L30-60L30-60Z"  horiz-adv-x="96" vert-adv-y="1000"  />

      
      <glyph glyph-name="uni7d" unicode="&#x7d;" d="M69 298Q69 308 71.50 326Q74 344 76.50 365Q79 386 81.50 408.50Q84 431 84 451Q84 481 62.50 497Q41 513 15 513L15 535Q33 535 55.50 530Q78 525 97.50 513.50Q117 502 130.50 484Q144 466 144 441Q144 407 135.50 368.50Q127 330 127 281Q127 267 137.50 256.50Q148 246 161 246L161 237Q148 237 137.50 226.50Q127 216 127 202Q127 153 135.50 114.50Q144 76 144 42Q144 16 130.50-1.50Q117-19 97.50-30.50Q78-42 55.50-47Q33-52 15-52L15-30Q41-30 62.50-14Q84 2 84 32Q84 52 81.50 75Q79 98 76.50 119Q74 140 71.50 157.50Q69 175 69 185Q69 211 87.50 224.50Q106 238 129 242Q106 245 87.50 258.50Q69 272 69 298Z"  horiz-adv-x="191" vert-adv-y="1000"  />

      
      <glyph glyph-name="uni7e" unicode="&#x7e;" d="M30 196Q30 251 46 269Q62 287 92 287Q108 287 123.50 283.50Q139 280 154 275.50Q169 271 184 267.50Q199 264 215 264Q243 264 272 287Q272 232 255.50 214Q239 196 210 196Q193 196 178 199.50Q163 203 148 207.50Q133 212 118 215.50Q103 219 87 219Q70 219 57.50 213.50Q45 208 30 196Z"  horiz-adv-x="302" vert-adv-y="1000"  />

      
      <glyph glyph-name="unia1" unicode="&#xa1;" d="M50 159Q51 185 44 199.50Q37 214 26 222L28 229L155 229L157 222Q146 214 138.50 199.50Q131 185 133 159L143-47Q143-73 149.50-87.50Q156-102 167-110L165-117L22-117L20-110Q31-102 37.50-87.50Q44-73 44-47L50 159M91 254Q68 254 51 270.50Q34 287 34 311Q34 335 51 351.50Q68 368 91 368Q115 368 132 351.50Q149 335 149 311Q149 287 132 270.50Q115 254 91 254Z"  horiz-adv-x="187" vert-adv-y="1000"  />

      
      <glyph glyph-name="unia2" unicode="&#xa2;" d="M122 173Q122 148 130.50 124.50Q139 101 154 82.50Q169 64 189.50 53Q210 42 234 42Q254 42 270.50 49.50Q287 57 302 70L304 63Q291 42 272.50 25Q254 8 224 0L224-60L188-60L188-5L184-5Q148-5 116.50 8Q85 21 61 44Q37 67 23.50 98.50Q10 130 10 167Q10 203 23.50 234.50Q37 266 61 289.50Q85 313 116.50 326Q148 339 184 339Q186 339 188 338L188 399L224 399L224 335Q229 334 233 334Q237 334 242 334Q250 334 258 335Q266 336 276 343L283 343L297 230L290 230Q256 291 208 291Q171 291 146.50 261.50Q122 232 122 173Z"  horiz-adv-x="314" vert-adv-y="1000"  />

      
      <glyph glyph-name="unia3" unicode="&#xa3;" d="M126 44Q198 44 253.50 69.50Q309 95 344 162L352 162L323-12L315-12Q304-5 291.50-2.50Q279 0 260 0L35 0L32 7Q62 54 64 110.50Q66 167 55 223L13 223L13 260L48 260Q42 289 37 315.50Q32 342 32 367Q32 391 41.50 413.50Q51 436 68 453Q85 470 108.50 480Q132 490 161 490Q181 490 198 488Q215 486 229 486Q237 486 250.50 487.50Q264 489 275 495L282 495L296 382L289 382Q275 412 255.50 426Q236 440 213 440Q181 440 162 418Q143 396 143 362Q143 339 146.50 313Q150 287 154 260L228 260L228 223L158 223Q159 201 161 176.50Q163 152 160.50 128Q158 104 150.50 82.50Q143 61 126 46L126 44Z"  horiz-adv-x="362" vert-adv-y="1000"  />

      
      <glyph glyph-name="unia4" unicode="&#xa4;" d="M438 242Q438 191 422.50 146.50Q407 102 380 68L414 22L385 0L354 41Q328 17 295.50 3.50Q263-10 226-10Q190-10 157.50 3.50Q125 17 98 41L67 0L38 22L73 68Q46 102 30.50 146.50Q15 191 15 242Q15 293 30.50 337Q46 381 73 415L38 461L67 483L98 442Q125 466 157.50 479.50Q190 493 226 493Q263 493 295.50 479.50Q328 466 354 442L385 483L414 461L380 415Q407 381 422.50 337Q438 293 438 242M130 242Q132 203 140.50 166Q149 129 163 100Q177 71 196.50 53.50Q216 36 240 36Q264 36 281 53.50Q298 71 308 100Q318 129 322 166Q326 203 323 242Q321 280 312.50 317Q304 354 290 383Q276 412 256.50 429.50Q237 447 213 447Q189 447 172 429.50Q155 412 144.50 383Q134 354 130.50 317Q127 280 130 242Z"  horiz-adv-x="453" vert-adv-y="1000"  />

      
      <glyph glyph-name="unia5" unicode="&#xa5;" d="M52 412Q37 439 22 453.50Q7 468-8 476L-8 483L145 483L151 476Q145 468 146.50 453.50Q148 439 163 412L220 311L223 288L227 311L284 413Q299 439 300.50 453.50Q302 468 295 476L302 483L416 483L416 476Q401 468 386 453.50Q371 439 356 413L279 275L361 275L361 239L260 239L260 202L361 202L361 166L260 166L260 71Q260 44 266.50 29.50Q273 15 284 7L282 0L127 0L125 7Q136 15 142.50 29.50Q149 44 149 71L149 166L47 166L47 202L149 202L149 239L47 239L47 275L130 275L52 412L52 412Z"  horiz-adv-x="408" vert-adv-y="1000"  />

      
      <glyph glyph-name="unia6" unicode="&#xa6;" d="M30 223L66 223L66-60L30-60L30-60L30 223M30 544L66 544L66 260L30 260L30 260L30 544Z"  horiz-adv-x="96" vert-adv-y="1000"  />

      
      <glyph glyph-name="unia7" unicode="&#xa7;" d="M10 256Q10 288 27 306Q44 324 69 332Q45 349 27.50 368.50Q10 388 10 413Q10 435 19 451Q28 467 43 477Q58 487 76.50 491.50Q95 496 114 496Q129 496 148 493.50Q167 491 184 491Q197 491 208 493Q219 495 227 500L235 500L249 387L241 387Q211 449 162 449Q143 449 131 439Q119 429 119 415Q119 391 143.50 372Q168 353 197.50 333.50Q227 314 251.50 291Q276 268 276 236Q276 211 262 190.50Q248 170 221 160Q244 143 260 124Q276 105 276 79Q276 45 250.50 20Q225-5 176-5Q155-5 134-2.50Q113 0 92 0Q69 0 57.50-2.50Q46-5 34-12L27-12L10 104L17 104Q34 75 63 58.50Q92 42 119 42Q142 42 154 52.50Q166 63 166 81Q166 96 154.50 109Q143 122 125.50 135Q108 148 88 161Q68 174 50.50 188.50Q33 203 21.50 219.50Q10 236 10 256M94 314Q86 307 86 295Q86 279 99.50 261.50Q113 244 131 227.50Q149 211 167 197.50Q185 184 194 178Q202 187 202 200Q202 213 188.50 230Q175 247 157 263.50Q139 280 121 294Q103 308 94 314Z"  horiz-adv-x="286" vert-adv-y="1000"  />

      
      <glyph glyph-name="unia8" unicode="&#xa8;" d="M257 620Q280 620 295.50 604.50Q311 589 311 567Q311 544 295.50 528.50Q280 513 257 513Q235 513 219.50 528.50Q204 544 204 567Q204 589 219.50 604.50Q235 620 257 620M83 620Q105 620 120.50 604.50Q136 589 136 567Q136 544 120.50 528.50Q105 513 83 513Q61 513 45.50 528.50Q30 544 30 567Q30 589 45.50 604.50Q61 620 83 620Z"  horiz-adv-x="341" vert-adv-y="1000"  />

      
      <glyph glyph-name="unia9" unicode="&#xa9;" d="M318 139Q338 139 351.50 146.50Q365 154 380 167L382 160Q360 123 327.50 106.50Q295 90 259 90Q229 90 201.50 101Q174 112 153 131Q132 150 119 176.50Q106 203 106 235Q106 262 116 288Q126 314 146.50 334Q167 354 198.50 366.50Q230 379 272 379Q292 379 314 376.50Q336 374 355 379L362 379L375 271L368 271Q354 302 336.50 317Q319 332 291 332Q270 332 255 324.50Q240 317 231 304Q222 291 217.50 275Q213 259 213 241Q213 221 219.50 203Q226 185 239 170.50Q252 156 271.50 147.50Q291 139 318 139M256 488Q307 488 350 468Q393 448 424.50 414Q456 380 473.50 335.50Q491 291 491 242Q491 192 473.50 147.50Q456 103 424.50 69.50Q393 36 350 16Q307-4 256-4Q205-4 162 16Q119 36 87.50 69.50Q56 103 38 147.50Q20 192 20 242Q20 291 38 335.50Q56 380 87.50 414Q119 448 162 468Q205 488 256 488M256 454Q214 454 177.50 437.50Q141 421 114 392Q87 363 71.50 324.50Q56 286 56 242Q56 198 71.50 159Q87 120 114 91Q141 62 177.50 45.50Q214 29 256 29Q297 29 333.50 45.50Q370 62 397 91Q424 120 439.50 159Q455 198 455 242Q455 286 439.50 324.50Q424 363 397 392Q370 421 333.50 437.50Q297 454 256 454Z"  horiz-adv-x="511" vert-adv-y="1000"  />

      
      <glyph glyph-name="uniaa" unicode="&#xaa;" d="M151 483L220 276Q225 263 230.50 256Q236 249 242 245L242 242L164 242L161 245Q171 253 163 276L157 294L93 294L89 303L80 276Q76 263 77 256Q78 249 82 245Q80 243 80 242L20 242L20 245Q27 249 32.50 256Q38 263 42 276L108 474L151 483M122 400Q115 380 108 359Q101 338 94 318L149 318L122 400Z"  horiz-adv-x="262" vert-adv-y="1000"  />

      
      <glyph glyph-name="uniab" unicode="&#xab;" d="M10 242L148 374L160 365L90 249L213 374L225 365L151 242L225 118L213 109L90 234L160 118L148 109L10 242L10 242L10 242Z"  horiz-adv-x="245" vert-adv-y="1000"  />

      
      <glyph glyph-name="uniac" unicode="&#xac;" d="M233 222L30 222L30 261L272 261L272 176L233 176L233 222L233 222L233 222Z"  horiz-adv-x="302" vert-adv-y="1000"  />

      
      <glyph glyph-name="uniad" unicode="&#xad;" d="M272 222L30 222L30 261L272 261L272 222L272 222L272 222Z"  horiz-adv-x="302" vert-adv-y="1000"  />

      
      <glyph glyph-name="uniae" unicode="&#xae;" d="M145 490Q170 490 193 480.50Q216 471 232.50 454.50Q249 438 259 415.50Q269 393 269 368Q269 342 259 319.50Q249 297 232.50 280.50Q216 264 193 254.50Q170 245 145 245Q119 245 96.50 254.50Q74 264 57 280.50Q40 297 30 319.50Q20 342 20 368Q20 393 30 415.50Q40 438 57 454.50Q74 471 96.50 480.50Q119 490 145 490M92 419Q92 427 90.50 430.50Q89 434 86 436L86 438Q100 438 117 439.50Q134 441 145 441Q171 441 187 430.50Q203 420 203 400Q203 383 190.50 372.50Q178 362 164 360Q178 346 187 328Q196 310 206 299L206 297L159 297Q159 303 155.50 312.50Q152 322 147.50 331.50Q143 341 137.50 349Q132 357 129 359L129 317Q129 303 135 299L134 297L86 297L86 299Q92 303 92 317L92 419M129 367Q143 367 153.50 374Q164 381 164 396Q164 407 156 416.50Q148 426 131 426L124 426L124 425Q129 421 129 407L129 367M145 468Q124 468 105.50 460Q87 452 73.50 438.50Q60 425 52 407Q44 389 44 368Q44 347 52 328.50Q60 310 73.50 296.50Q87 283 105.50 275Q124 267 145 267Q166 267 184 275Q202 283 215.50 296.50Q229 310 237 328.50Q245 347 245 368Q245 410 216 439Q187 468 145 468Z"  horiz-adv-x="289" vert-adv-y="1000"  />

      
      <glyph glyph-name="uniaf" unicode="&#xaf;" d="M30 550L211 550L211 513L30 513L30 550L30 550L30 550Z"  horiz-adv-x="241" vert-adv-y="1000"  />

      
      <glyph glyph-name="unib0" unicode="&#xb0;" d="M110 463Q93 463 83 445.50Q73 428 73 408Q73 389 83 371.50Q93 354 110 354Q127 354 136.50 371.50Q146 389 146 408Q146 428 136.50 445.50Q127 463 110 463M30 408Q30 437 51.50 460Q73 483 110 483Q146 483 167.50 460Q189 437 189 408Q189 379 167.50 356.50Q146 334 110 334Q73 334 51.50 356.50Q30 379 30 408Z"  horiz-adv-x="219" vert-adv-y="1000"  />

      
      <glyph glyph-name="unib1" unicode="&#xb1;" d="M30 0L30 39L272 39L272 0L272 0L30 0M170 191L170 89L131 89L131 191L30 191L30 230L131 230L131 331L170 331L170 230L272 230L272 191L272 191L170 191Z"  horiz-adv-x="302" vert-adv-y="1000"  />

      
      <glyph glyph-name="unib2" unicode="&#xb2;" d="M207 309Q207 276 198 256.50Q189 237 159 237Q151 237 139.50 239Q128 241 115 243.50Q102 246 89 248Q76 250 64 250Q55 250 47 248.50Q39 247 34 242L30 242Q30 275 48.50 295.50Q67 316 89 334Q111 352 129.50 372.50Q148 393 148 426Q148 443 137 455Q126 467 109 467Q89 467 73 455.50Q57 444 46 418L42 418L50 495L54 495Q60 492 64.50 490.50Q69 489 75 489Q85 489 96.50 491.50Q108 494 123 494Q161 494 184 474Q207 454 207 425Q207 389 188 368Q169 347 144.50 333Q120 319 96.50 307.50Q73 296 64 279L67 276Q75 288 85.50 292Q96 296 109 296Q121 296 134.50 294Q148 292 160.50 291.50Q173 291 184.50 294.50Q196 298 204 309L207 309Z"  horiz-adv-x="237" vert-adv-y="1000"  />

      
      <glyph glyph-name="unib3" unicode="&#xb3;" d="M42 489L51 489L47 453Q56 476 67.50 482.50Q79 489 92 489Q103 489 114 486.50Q125 484 136 482.50Q147 481 159 482Q171 483 184 489L188 489Q190 484 190 479Q190 474 190 469Q190 455 183 443Q176 431 165.50 420.50Q155 410 142.50 400.50Q130 391 120 383Q162 383 183 361.50Q204 340 204 314Q204 279 181 258Q158 237 121 237Q107 237 96 239.50Q85 242 71 242Q61 242 48 236L45 236L30 325L34 325Q56 264 98 264Q123 264 133.50 278.50Q144 293 144 315Q144 337 128 354Q112 371 77 371L77 373Q94 387 113 401.50Q132 416 147 431Q135 431 120.50 433.50Q106 436 91.50 437Q77 438 64 434.50Q51 431 42 418L35 418L42 489Z"  horiz-adv-x="234" vert-adv-y="1000"  />

      
      <glyph glyph-name="unib4" unicode="&#xb4;" d="M147 586L147 586L33 513L15 523L76 624L147 586L147 586Z"  horiz-adv-x="162" vert-adv-y="1000"  />

      
      <glyph glyph-name="unib5" unicode="&#xb5;" d="M253 49Q232 0 197 0Q184 0 171.50 7Q159 14 151 27L151-62Q151-89 158-103.50Q165-118 176-126L173-133L22-133L20-126Q31-118 37.50-103.50Q44-89 44-62L44 232Q44 258 37.50 272.50Q31 287 20 295L22 302L151 334L151 103Q151 89 156 79Q161 69 168.50 63Q176 57 185 54Q194 51 202 51Q219 51 236 64Q253 77 253 105L253 232Q253 258 247 272.50Q241 287 231 296L233 303L363 334L363 71Q363 44 370 29.50Q377 15 388 7L385 0L261 0L256 49L253 49L253 49Z"  horiz-adv-x="398" vert-adv-y="1000"  />

      
      <glyph glyph-name="unib6" unicode="&#xb6;" d="M172 235Q134 235 105.50 245.50Q77 256 58 273.50Q39 291 29.50 313Q20 335 20 359Q20 382 29.50 404.50Q39 427 58 444.50Q77 462 105.50 472.50Q134 483 172 483L211 483L211 0L172 0L172 235M247 483L286 483L286 0L247 0L247 483Z"  horiz-adv-x="306" vert-adv-y="1000"  />

      
      <glyph glyph-name="unib7" unicode="&#xb7;" d="M87 299Q111 299 128 282Q145 265 145 242Q145 218 128 201Q111 184 87 184Q64 184 47 201Q30 218 30 242Q30 265 47 282Q64 299 87 299Z"  horiz-adv-x="175" vert-adv-y="1000"  />

      
      <glyph glyph-name="unib8" unicode="&#xb8;" d="M175-55Q175-87 151-100.50Q127-114 92-114Q75-114 58.50-109.50Q42-105 30-95L33-79Q54-91 76-91Q96-91 108-81Q120-71 120-54Q120-42 110-31Q100-20 80-20Q66-20 52-27L49-11Q70 1 73 18L116 18L107 0Q132 0 153.50-14Q175-28 175-55Z"  horiz-adv-x="205" vert-adv-y="1000"  />

      
      <glyph glyph-name="unib9" unicode="&#xb9;" d="M42 438Q42 452 38.50 458.50Q35 465 30 470L31 473Q47 473 67.50 477.50Q88 482 101 489L101 277Q101 263 105 256.50Q109 250 114 245L113 242L31 242L30 245Q35 250 38.50 256.50Q42 263 42 277L42 438L42 438Z"  horiz-adv-x="144" vert-adv-y="1000"  />

      
      <glyph glyph-name="uniba" unicode="&#xba;" d="M241 366Q241 339 232 315.50Q223 292 208 274.50Q193 257 173 247Q153 237 131 237Q108 237 88 247Q68 257 53 274.50Q38 292 29 315.50Q20 339 20 366Q20 393 29 416Q38 439 53 456.50Q68 474 88 484Q108 494 131 494Q153 494 173 484Q193 474 208 456.50Q223 439 232 416Q241 393 241 366M81 366Q82 346 86.50 327Q91 308 98 293Q105 278 115 269Q125 260 137 260Q149 260 158 269Q167 278 172 293Q177 308 179 327Q181 346 180 366Q179 385 174.50 404Q170 423 163 438Q156 453 146 462Q136 471 124 471Q112 471 103 462Q94 453 89 438Q84 423 82 404Q80 385 81 366Z"  horiz-adv-x="261" vert-adv-y="1000"  />

      
      <glyph glyph-name="unibb" unicode="&#xbb;" d="M235 242L235 242L97 109L85 118L155 234L32 109L20 118L94 242L20 365L32 374L155 249L85 365L97 374L235 242Z"  horiz-adv-x="245" vert-adv-y="1000"  />

      
      <glyph glyph-name="unibc" unicode="&#xbc;" d="M331 36Q331 22 334.50 15Q338 8 344 4L342 0L263 0L262 4Q267 8 271 15Q275 22 275 36L275 65L270 57L176 57L165 73Q183 83 197 102.50Q211 122 220.50 146.50Q230 171 235 197.50Q240 224 240 247L297 247Q297 188 269.50 139Q242 90 187 70L187 69L275 69L275 128Q296 139 309.50 161.50Q323 184 323 215L331 215L331 36M221 483L254 483L85 0L51 0L221 483M27 431Q27 445 23.50 452Q20 459 15 463L16 467Q32 467 51.50 471.50Q71 476 84 483L84 272Q84 258 87.50 251Q91 244 96 240L95 236L16 236L15 240Q20 244 23.50 251Q27 258 27 272L27 431Z"  horiz-adv-x="359" vert-adv-y="1000"  />

      
      <glyph glyph-name="unibd" unicode="&#xbd;" d="M365 67Q365 34 355.50 14.50Q346-5 316-5Q300-5 273.50 1.50Q247 8 224 8Q202 8 193 0L190 0Q190 33 208.50 53.50Q227 74 248.50 92Q270 110 288.50 130.50Q307 151 307 184Q307 201 296.50 213.50Q286 226 269 226Q228 226 205 176L202 176L210 253L213 253Q220 250 224.50 248.50Q229 247 235 247Q245 247 256 249.50Q267 252 283 252Q321 252 343 232Q365 212 365 183Q365 147 346 126Q327 105 302.50 91Q278 77 254 65.50Q230 54 221 37L224 34Q232 46 243 50Q254 54 266 54Q278 54 291.50 52Q305 50 317.50 49.50Q330 49 341.50 52.50Q353 56 361 67L365 67M27 431Q27 445 23.50 452Q20 459 15 463L16 467Q32 467 51.50 471.50Q71 476 84 483L84 272Q84 258 87.50 251Q91 244 96 240L95 236L16 236L15 240Q20 244 23.50 251Q27 258 27 272L27 431M221 483L254 483L85 0L51 0L221 483Z"  horiz-adv-x="380" vert-adv-y="1000"  />

      
      <glyph glyph-name="unibe" unicode="&#xbe;" d="M27 483L36 483L32 448Q41 471 52.50 477Q64 483 77 483Q88 483 98.50 480.50Q109 478 120 476.50Q131 475 142.50 476Q154 477 167 483L171 483Q172 478 172.50 473.50Q173 469 173 464Q173 450 166 438Q159 426 148.50 415Q138 404 125.50 394.50Q113 385 103 377Q144 377 165 355.50Q186 334 186 308Q186 273 164.50 252Q143 231 106 231Q92 231 81 233.50Q70 236 56 236Q51 236 45.50 235Q40 234 33 230L30 230L15 319L19 319Q41 258 83 258Q108 258 118.50 272.50Q129 287 129 309Q129 331 113 348Q97 365 62 365L62 368Q79 381 98 395.50Q117 410 132 425Q120 425 105.50 427.50Q91 430 76.50 431Q62 432 49 428.50Q36 425 27 412L20 412L27 483M406 36Q406 22 409.50 15Q413 8 418 4L417 0L338 0L337 4Q342 8 345.50 15Q349 22 349 36L349 65L344 57L251 57L239 73Q257 83 271.50 102.50Q286 122 295.50 146.50Q305 171 310 197.50Q315 224 315 247L372 247Q372 188 344.50 139Q317 90 262 70L262 69L349 69L349 128Q371 139 384.50 161.50Q398 184 398 215L406 215L406 36M298 483L332 483L162 0L129 0L298 483Z"  horiz-adv-x="433" vert-adv-y="1000"  />

      
      <glyph glyph-name="unibf" unicode="&#xbf;" d="M225 254Q202 254 185 270.50Q168 287 168 311Q168 335 185 351.50Q202 368 225 368Q249 368 266 351.50Q283 335 283 311Q283 287 266 270.50Q249 254 225 254M204 232Q239 232 256.50 219Q274 206 274 184Q274 167 264 151.50Q254 136 239 121Q224 106 206 91.50Q188 77 173 61Q158 45 148 27.50Q138 10 138-11Q138-35 156.50-55Q175-75 207-75Q248-75 278.50-51.50Q309-28 337 25L344 25L328-129L321-129Q309-122 298.50-119.50Q288-117 276-117Q258-117 236.50-122Q215-127 185-127Q113-127 71.50-97Q30-67 30-10Q30 16 43 39Q56 62 75 83Q94 104 117 123Q140 142 159 160.50Q178 179 191 196.50Q204 214 204 232Z"  horiz-adv-x="364" vert-adv-y="1000"  />

      
      <glyph glyph-name="unic0" unicode="&#xc0;" d="M248 490L388 71Q397 44 408.50 29.50Q420 15 433 7L433 0L279 0L274 7Q282 15 284 29.50Q286 44 277 71L265 107L136 107L128 125L110 71Q101 44 103 29.50Q105 15 113 7L108 0L-8 0L-8 7Q6 15 17.50 29.50Q29 44 37 71L171 472L248 490M193 322L138 155L249 155L193 322M169 644L230 543L212 534L98 607L169 644Z"  horiz-adv-x="425" vert-adv-y="1000"  />

      
      <glyph glyph-name="unic1" unicode="&#xc1;" d="M248 490L388 71Q397 44 408.50 29.50Q420 15 433 7L433 0L279 0L274 7Q282 15 284 29.50Q286 44 277 71L265 107L136 107L128 125L110 71Q101 44 103 29.50Q105 15 113 7L108 0L-8 0L-8 7Q6 15 17.50 29.50Q29 44 37 71L171 472L248 490M193 322L138 155L249 155L193 322M212 534L194 544L255 645L326 607L212 534Z"  horiz-adv-x="425" vert-adv-y="1000"  />

      
      <glyph glyph-name="unic2" unicode="&#xc2;" d="M248 490L388 71Q397 44 408.50 29.50Q420 15 433 7L433 0L279 0L274 7Q282 15 284 29.50Q286 44 277 71L265 107L136 107L128 125L110 71Q101 44 103 29.50Q105 15 113 7L108 0L-8 0L-8 7Q6 15 17.50 29.50Q29 44 37 71L171 472L248 490M193 322L138 155L249 155L193 322M294 547L285 534L212 590L139 534L130 547L212 646L294 547Z"  horiz-adv-x="425" vert-adv-y="1000"  />

      
      <glyph glyph-name="unic3" unicode="&#xc3;" d="M248 490L388 71Q397 44 408.50 29.50Q420 15 433 7L433 0L279 0L274 7Q282 15 284 29.50Q286 44 277 71L265 107L136 107L128 125L110 71Q101 44 103 29.50Q105 15 113 7L108 0L-8 0L-8 7Q6 15 17.50 29.50Q29 44 37 71L171 472L248 490M118 534Q118 579 132.50 595Q147 611 170 611Q183 611 194.50 608Q206 605 217 601.50Q228 598 239 595Q250 592 263 592Q284 592 306 611Q306 567 291.50 550.50Q277 534 254 534Q228 534 207.50 543.50Q187 553 162 553Q149 553 139 548.50Q129 544 118 534M193 322L138 155L249 155L193 322Z"  horiz-adv-x="425" vert-adv-y="1000"  />

      
      <glyph glyph-name="unic4" unicode="&#xc4;" d="M248 490L388 71Q397 44 408.50 29.50Q420 15 433 7L433 0L279 0L274 7Q282 15 284 29.50Q286 44 277 71L265 107L136 107L128 125L110 71Q101 44 103 29.50Q105 15 113 7L108 0L-8 0L-8 7Q6 15 17.50 29.50Q29 44 37 71L171 472L248 490M193 322L138 155L249 155L193 322M304 641Q327 641 342.50 625.50Q358 610 358 588Q358 565 342.50 549.50Q327 534 304 534Q282 534 266.50 549.50Q251 565 251 588Q251 610 266.50 625.50Q282 641 304 641M120 641Q142 641 157.50 625.50Q173 610 173 588Q173 565 157.50 549.50Q142 534 120 534Q98 534 82.50 549.50Q67 565 67 588Q67 610 82.50 625.50Q98 641 120 641Z"  horiz-adv-x="425" vert-adv-y="1000"  />

      
      <glyph glyph-name="unic5" unicode="&#xc5;" d="M213 586Q199 586 190.50 572Q182 558 182 542Q182 526 190.50 512Q199 498 213 498Q227 498 235 512Q243 526 243 542Q243 558 235 572Q227 586 213 586M191 483Q170 490 157.50 506Q145 522 145 542Q145 566 164 584.50Q183 603 213 603Q242 603 261 584.50Q280 566 280 542Q280 522 267.50 506Q255 490 234 483L250 483L388 71Q397 44 408.50 29.50Q420 15 433 7L433 0L279 0Q277 2 276.50 3.50Q276 5 274 7Q282 15 284 29.50Q286 44 277 71L265 107L136 107L128 125L110 71Q101 44 103 29.50Q105 15 113 7Q111 5 110.50 3.50Q110 2 108 0L-8 0L-8 7Q6 15 17.50 29.50Q29 44 37 71L175 483L191 483M193 322Q179 280 165.50 238.50Q152 197 138 155L249 155L193 322Z"  horiz-adv-x="425" vert-adv-y="1000"  />

      
      <glyph glyph-name="unic6" unicode="&#xc6;" d="M232 440L138 155L272 155L272 440L232 440M491 483Q513 483 526 485.50Q539 488 551 495L558 495L584 341L577 341Q559 372 536 391.50Q513 411 485.50 421.50Q458 432 427 436Q396 440 363 440L363 437Q374 428 377 410.50Q380 393 380 371L380 288Q407 288 429.50 298.50Q452 309 470 338L477 338L477 203L470 203Q452 232 429.50 242.50Q407 253 380 253L380 112Q380 91 377 73Q374 55 363 46L363 44Q435 44 489.50 69.50Q544 95 579 162L586 162L557-12L550-12Q539-5 526-2.50Q513 0 490 0L250 0L248 7Q259 15 265.50 29.50Q272 44 272 71L272 107L136 107L128 125L110 71Q101 44 103 29.50Q105 15 113 7Q111 5 110.50 3.50Q110 2 108 0L-8 0L-8 7Q6 15 17.50 29.50Q29 44 37 71L175 483L491 483Z"  horiz-adv-x="596" vert-adv-y="1000"  />

      
      <glyph glyph-name="unic7" unicode="&#xc7;" d="M229 495Q266 495 290.50 489Q315 483 335 483Q348 483 356.50 485.50Q365 488 376 495L383 495L402 341L394 341Q371 391 338.50 415.50Q306 440 274 440Q246 440 219 428Q192 416 170.50 391Q149 366 135.50 329Q122 292 122 242Q122 192 134.50 154.50Q147 117 167.50 92.50Q188 68 213.50 56Q239 44 266 44Q310 44 345.50 74Q381 104 404 162L411 162L382-12L375-12Q363-5 352.50-2.50Q342 0 331 0Q317 0 299.50-3.50Q282-7 262-10L257-18Q283-18 304-32Q325-46 325-73Q325-105 301-118.50Q277-132 243-132Q226-132 209-127.50Q192-123 180-113L183-97Q205-109 227-109Q247-109 259-99Q271-89 271-72Q271-60 260.50-49Q250-38 230-38Q219-38 203-45L199-29Q213-22 219-12Q167-10 128 12.50Q89 35 62.50 70.50Q36 106 23 150.50Q10 195 10 242Q10 289 23.50 334.50Q37 380 64.50 415.50Q92 451 133 473Q174 495 229 495Z"  horiz-adv-x="421" vert-adv-y="1000"  />

      
      <glyph glyph-name="unic8" unicode="&#xc8;" d="M44 413Q44 439 37.50 453.50Q31 468 20 476L22 483L265 483Q288 483 301 485.50Q314 488 326 495L333 495L359 341L351 341Q333 372 310 391.50Q287 411 260 421.50Q233 432 202 436Q171 440 138 440L138 437Q148 428 151.50 410.50Q155 393 155 371L155 288Q182 288 204 298.50Q226 309 245 338L252 338L252 203L245 203Q226 232 204 242.50Q182 253 155 253L155 112Q155 91 151.50 73Q148 55 138 46L138 44Q210 44 264.50 69.50Q319 95 354 162L361 162L332-12L325-12Q313-5 300-2.50Q287 0 265 0L22 0L20 7Q31 15 37.50 29.50Q44 44 44 71L44 413M147 645L208 544L190 535L76 608L147 645Z"  horiz-adv-x="371" vert-adv-y="1000"  />

      
      <glyph glyph-name="unic9" unicode="&#xc9;" d="M44 413Q44 439 37.50 453.50Q31 468 20 476L22 483L265 483Q288 483 301 485.50Q314 488 326 495L333 495L359 341L351 341Q333 372 310 391.50Q287 411 260 421.50Q233 432 202 436Q171 440 138 440L138 437Q148 428 151.50 410.50Q155 393 155 371L155 288Q182 288 204 298.50Q226 309 245 338L252 338L252 203L245 203Q226 232 204 242.50Q182 253 155 253L155 112Q155 91 151.50 73Q148 55 138 46L138 44Q210 44 264.50 69.50Q319 95 354 162L361 162L332-12L325-12Q313-5 300-2.50Q287 0 265 0L22 0L20 7Q31 15 37.50 29.50Q44 44 44 71L44 413M190 535L172 545L233 646L304 608L190 535Z"  horiz-adv-x="371" vert-adv-y="1000"  />

      
      <glyph glyph-name="unica" unicode="&#xca;" d="M272 548L263 535L190 591L117 535L108 548L190 647L272 548M44 413Q44 439 37.50 453.50Q31 468 20 476L22 483L265 483Q288 483 301 485.50Q314 488 326 495L333 495L359 341L351 341Q333 372 310 391.50Q287 411 260 421.50Q233 432 202 436Q171 440 138 440L138 437Q148 428 151.50 410.50Q155 393 155 371L155 288Q182 288 204 298.50Q226 309 245 338L252 338L252 203L245 203Q226 232 204 242.50Q182 253 155 253L155 112Q155 91 151.50 73Q148 55 138 46L138 44Q210 44 264.50 69.50Q319 95 354 162L361 162L332-12L325-12Q313-5 300-2.50Q287 0 265 0L22 0L20 7Q31 15 37.50 29.50Q44 44 44 71L44 413Z"  horiz-adv-x="371" vert-adv-y="1000"  />

      
      <glyph glyph-name="unicb" unicode="&#xcb;" d="M44 413Q44 439 37.50 453.50Q31 468 20 476L22 483L265 483Q288 483 301 485.50Q314 488 326 495L333 495L359 341L351 341Q333 372 310 391.50Q287 411 260 421.50Q233 432 202 436Q171 440 138 440L138 437Q148 428 151.50 410.50Q155 393 155 371L155 288Q182 288 204 298.50Q226 309 245 338L252 338L252 203L245 203Q226 232 204 242.50Q182 253 155 253L155 112Q155 91 151.50 73Q148 55 138 46L138 44Q210 44 264.50 69.50Q319 95 354 162L361 162L332-12L325-12Q313-5 300-2.50Q287 0 265 0L22 0L20 7Q31 15 37.50 29.50Q44 44 44 71L44 413M277 642Q300 642 315.50 626.50Q331 611 331 589Q331 566 315.50 550.50Q300 535 277 535Q255 535 239.50 550.50Q224 566 224 589Q224 611 239.50 626.50Q255 642 277 642M103 642Q125 642 140.50 626.50Q156 611 156 589Q156 566 140.50 550.50Q125 535 103 535Q81 535 65.50 550.50Q50 566 50 589Q50 611 65.50 626.50Q81 642 103 642Z"  horiz-adv-x="371" vert-adv-y="1000"  />

      
      <glyph glyph-name="unicc" unicode="&#xcc;" d="M44 413Q44 439 37.50 453.50Q31 468 20 476L22 483L177 483L179 476Q168 468 161.50 453.50Q155 439 155 413L155 71Q155 44 161.50 29.50Q168 15 179 7L177 0L22 0L20 7Q31 15 37.50 29.50Q44 44 44 71L44 413M55 645L116 544L98 535L-16 608L55 645Z"  horiz-adv-x="199" vert-adv-y="1000"  />

      
      <glyph glyph-name="unicd" unicode="&#xcd;" d="M44 413Q44 439 37.50 453.50Q31 468 20 476L22 483L177 483L179 476Q168 468 161.50 453.50Q155 439 155 413L155 71Q155 44 161.50 29.50Q168 15 179 7L177 0L22 0L20 7Q31 15 37.50 29.50Q44 44 44 71L44 413M98 535L80 545L141 646L212 608L98 535Z"  horiz-adv-x="199" vert-adv-y="1000"  />

      
      <glyph glyph-name="unice" unicode="&#xce;" d="M44 413Q44 439 37.50 453.50Q31 468 20 476L22 483L177 483L179 476Q168 468 161.50 453.50Q155 439 155 413L155 71Q155 44 161.50 29.50Q168 15 179 7L177 0L22 0L20 7Q31 15 37.50 29.50Q44 44 44 71L44 413M180 548L171 535L98 591L25 535L16 548L98 647L180 548Z"  horiz-adv-x="199" vert-adv-y="1000"  />

      
      <glyph glyph-name="unicf" unicode="&#xcf;" d="M44 413Q44 439 37.50 453.50Q31 468 20 476L22 483L177 483L179 476Q168 468 161.50 453.50Q155 439 155 413L155 71Q155 44 161.50 29.50Q168 15 179 7L177 0L22 0L20 7Q31 15 37.50 29.50Q44 44 44 71L44 413M184 642Q207 642 222.50 626.50Q238 611 238 589Q238 566 222.50 550.50Q207 535 184 535Q162 535 146.50 550.50Q131 566 131 589Q131 611 146.50 626.50Q162 642 184 642M14 642Q36 642 51.50 626.50Q67 611 67 589Q67 566 51.50 550.50Q36 535 14 535Q-8 535-23.50 550.50Q-39 566-39 589Q-39 611-23.50 626.50Q-8 642 14 642Z"  horiz-adv-x="199" vert-adv-y="1000"  />

      
      <glyph glyph-name="unid0" unicode="&#xd0;" d="M45 413Q45 439 38 453.50Q31 468 20 476L23 483Q73 483 116.50 486.50Q160 490 205 490Q260 490 302 469Q344 448 372.50 413.50Q401 379 416 334Q431 289 431 242Q431 194 416 149.50Q401 105 372.50 70Q344 35 302 14Q260-7 205-7Q181-7 162-6Q143-5 123-3.50Q103-2 79.50-1Q56 0 23 0L20 7Q31 15 38 29.50Q45 44 45 71L45 223L-4 223L-4 260L45 260L45 413M155 223L155 112Q155 91 152 73Q149 55 138 46L138 44L173 44Q200 44 226 56Q252 68 272.50 92.50Q293 117 306 154.50Q319 192 319 242Q319 292 305.50 329Q292 366 270 391Q248 416 220 428Q192 440 164 440L138 440L138 437Q149 428 152 410.50Q155 393 155 371L155 260L241 260L241 223L155 223Z"  horiz-adv-x="441" vert-adv-y="1000"  />

      
      <glyph glyph-name="unid1" unicode="&#xd1;" d="M294 413Q294 439 287 453.50Q280 468 269 476L272 483L388 483L390 476Q379 468 372.50 453.50Q366 439 366 413L366 0L296 0Q281 50 261 89Q241 128 217.50 163Q194 198 168 233.50Q142 269 116 311L116 71Q116 44 123 29.50Q130 15 141 7L138 0L22 0L20 7Q31 15 37.50 29.50Q44 44 44 71L44 413Q44 439 37.50 453.50Q31 468 20 476L22 483L148 483Q157 444 173.50 409.50Q190 375 209.50 344Q229 313 251 283.50Q273 254 294 224L294 413M111 534Q111 579 125.50 595Q140 611 163 611Q176 611 187.50 608Q199 605 210 601.50Q221 598 232 595Q243 592 256 592Q277 592 299 611Q299 567 284.50 550.50Q270 534 247 534Q221 534 200.50 543.50Q180 553 155 553Q142 553 132 548.50Q122 544 111 534Z"  horiz-adv-x="410" vert-adv-y="1000"  />

      
      <glyph glyph-name="unid2" unicode="&#xd2;" d="M230 485Q238 489 245 490Q252 491 259 491Q302 491 339.50 468.50Q377 446 405 410.50Q433 375 448.50 330.50Q464 286 464 242Q464 189 446 143Q428 97 397.50 63Q367 29 325.50 9.50Q284-10 237-10Q190-10 148.50 9.50Q107 29 76.50 63Q46 97 28 143Q10 189 10 242Q10 285 22 323.50Q34 362 55.50 393.50Q77 425 106.50 448Q136 471 171 482Q190 488 203 488.50Q216 489 230 485M350 242Q347 276 338.50 309.50Q330 343 316 370Q302 397 282.50 415.50Q263 434 238 439Q220 419 217 384.50Q214 350 223.50 317Q233 284 254.50 259.50Q276 235 308 235Q308 202 293.50 183.50Q279 165 253 165Q229 165 212 178.50Q195 192 184.50 214.50Q174 237 169.50 265.50Q165 294 166 324Q167 354 173 383Q179 412 190 435Q171 426 157.50 406Q144 386 135.50 360Q127 334 124 303.50Q121 273 124 242Q127 204 136.50 168.50Q146 133 162.50 104.50Q179 76 201.50 59Q224 42 253 42Q281 42 301 59Q321 76 333 104.50Q345 133 349 168.50Q353 204 350 242M192 646L253 545L235 536L121 609L192 646Z"  horiz-adv-x="474" vert-adv-y="1000"  />

      
      <glyph glyph-name="unid3" unicode="&#xd3;" d="M230 485Q238 489 245 490Q252 491 259 491Q302 491 339.50 468.50Q377 446 405 410.50Q433 375 448.50 330.50Q464 286 464 242Q464 189 446 143Q428 97 397.50 63Q367 29 325.50 9.50Q284-10 237-10Q190-10 148.50 9.50Q107 29 76.50 63Q46 97 28 143Q10 189 10 242Q10 285 22 323.50Q34 362 55.50 393.50Q77 425 106.50 448Q136 471 171 482Q190 488 203 488.50Q216 489 230 485M350 242Q347 276 338.50 309.50Q330 343 316 370Q302 397 282.50 415.50Q263 434 238 439Q220 419 217 384.50Q214 350 223.50 317Q233 284 254.50 259.50Q276 235 308 235Q308 202 293.50 183.50Q279 165 253 165Q229 165 212 178.50Q195 192 184.50 214.50Q174 237 169.50 265.50Q165 294 166 324Q167 354 173 383Q179 412 190 435Q171 426 157.50 406Q144 386 135.50 360Q127 334 124 303.50Q121 273 124 242Q127 204 136.50 168.50Q146 133 162.50 104.50Q179 76 201.50 59Q224 42 253 42Q281 42 301 59Q321 76 333 104.50Q345 133 349 168.50Q353 204 350 242M238 535L220 545L281 646L352 608L238 535Z"  horiz-adv-x="474" vert-adv-y="1000"  />

      
      <glyph glyph-name="unid4" unicode="&#xd4;" d="M230 485Q238 489 245 490Q252 491 259 491Q302 491 339.50 468.50Q377 446 405 410.50Q433 375 448.50 330.50Q464 286 464 242Q464 189 446 143Q428 97 397.50 63Q367 29 325.50 9.50Q284-10 237-10Q190-10 148.50 9.50Q107 29 76.50 63Q46 97 28 143Q10 189 10 242Q10 285 22 323.50Q34 362 55.50 393.50Q77 425 106.50 448Q136 471 171 482Q190 488 203 488.50Q216 489 230 485M350 242Q347 276 338.50 309.50Q330 343 316 370Q302 397 282.50 415.50Q263 434 238 439Q220 419 217 384.50Q214 350 223.50 317Q233 284 254.50 259.50Q276 235 308 235Q308 202 293.50 183.50Q279 165 253 165Q229 165 212 178.50Q195 192 184.50 214.50Q174 237 169.50 265.50Q165 294 166 324Q167 354 173 383Q179 412 190 435Q171 426 157.50 406Q144 386 135.50 360Q127 334 124 303.50Q121 273 124 242Q127 204 136.50 168.50Q146 133 162.50 104.50Q179 76 201.50 59Q224 42 253 42Q281 42 301 59Q321 76 333 104.50Q345 133 349 168.50Q353 204 350 242M320 548L311 535L238 591L165 535L156 548L238 647L320 548Z"  horiz-adv-x="474" vert-adv-y="1000"  />

      
      <glyph glyph-name="unid5" unicode="&#xd5;" d="M230 485Q238 489 245 490Q252 491 259 491Q302 491 339.50 468.50Q377 446 405 410.50Q433 375 448.50 330.50Q464 286 464 242Q464 189 446 143Q428 97 397.50 63Q367 29 325.50 9.50Q284-10 237-10Q190-10 148.50 9.50Q107 29 76.50 63Q46 97 28 143Q10 189 10 242Q10 285 22 323.50Q34 362 55.50 393.50Q77 425 106.50 448Q136 471 171 482Q190 488 203 488.50Q216 489 230 485M350 242Q347 276 338.50 309.50Q330 343 316 370Q302 397 282.50 415.50Q263 434 238 439Q220 419 217 384.50Q214 350 223.50 317Q233 284 254.50 259.50Q276 235 308 235Q308 202 293.50 183.50Q279 165 253 165Q229 165 212 178.50Q195 192 184.50 214.50Q174 237 169.50 265.50Q165 294 166 324Q167 354 173 383Q179 412 190 435Q171 426 157.50 406Q144 386 135.50 360Q127 334 124 303.50Q121 273 124 242Q127 204 136.50 168.50Q146 133 162.50 104.50Q179 76 201.50 59Q224 42 253 42Q281 42 301 59Q321 76 333 104.50Q345 133 349 168.50Q353 204 350 242M144 535Q144 580 158.50 596Q173 612 196 612Q209 612 220.50 609Q232 606 243 602.50Q254 599 265 596Q276 593 289 593Q310 593 332 612Q332 568 317.50 551.50Q303 535 280 535Q254 535 233.50 544.50Q213 554 188 554Q175 554 165 549.50Q155 545 144 535Z"  horiz-adv-x="474" vert-adv-y="1000"  />

      
      <glyph glyph-name="unid6" unicode="&#xd6;" d="M230 485Q238 489 245 490Q252 491 259 491Q302 491 339.50 468.50Q377 446 405 410.50Q433 375 448.50 330.50Q464 286 464 242Q464 189 446 143Q428 97 397.50 63Q367 29 325.50 9.50Q284-10 237-10Q190-10 148.50 9.50Q107 29 76.50 63Q46 97 28 143Q10 189 10 242Q10 285 22 323.50Q34 362 55.50 393.50Q77 425 106.50 448Q136 471 171 482Q190 488 203 488.50Q216 489 230 485M350 242Q347 276 338.50 309.50Q330 343 316 370Q302 397 282.50 415.50Q263 434 238 439Q220 419 217 384.50Q214 350 223.50 317Q233 284 254.50 259.50Q276 235 308 235Q308 202 293.50 183.50Q279 165 253 165Q229 165 212 178.50Q195 192 184.50 214.50Q174 237 169.50 265.50Q165 294 166 324Q167 354 173 383Q179 412 190 435Q171 426 157.50 406Q144 386 135.50 360Q127 334 124 303.50Q121 273 124 242Q127 204 136.50 168.50Q146 133 162.50 104.50Q179 76 201.50 59Q224 42 253 42Q281 42 301 59Q321 76 333 104.50Q345 133 349 168.50Q353 204 350 242M325 642Q348 642 363.50 626.50Q379 611 379 589Q379 566 363.50 550.50Q348 535 325 535Q303 535 287.50 550.50Q272 566 272 589Q272 611 287.50 626.50Q303 642 325 642M151 642Q173 642 188.50 626.50Q204 611 204 589Q204 566 188.50 550.50Q173 535 151 535Q129 535 113.50 550.50Q98 566 98 589Q98 611 113.50 626.50Q129 642 151 642Z"  horiz-adv-x="474" vert-adv-y="1000"  />

      
      <glyph glyph-name="unid7" unicode="&#xd7;" d="M228 313L156 242L228 170L201 142L129 214L57 142L30 170L102 242L30 313L57 341L129 269L201 341L228 313L228 313L228 313Z"  horiz-adv-x="258" vert-adv-y="1000"  />

      
      <glyph glyph-name="unid8" unicode="&#xd8;" d="M124 242Q127 186 147 138L308 383Q292 409 270 425Q248 441 221 441Q193 441 173 424Q153 407 141 379Q129 351 125 315Q121 279 124 242M165 100Q182 74 203.50 58Q225 42 253 42Q281 42 301 59Q321 76 333 104.50Q345 133 349 168.50Q353 204 350 242Q345 298 327 345L165 100M89 51Q53 86 31.50 135Q10 184 10 242Q10 294 28 340Q46 386 76.50 420Q107 454 148.50 473.50Q190 493 237 493Q270 493 300 483Q330 473 356 455L388 503L418 483L385 433Q421 398 442.50 348.50Q464 299 464 242Q464 189 446 143Q428 97 397.50 63Q367 29 325.50 9.50Q284-10 237-10Q204-10 173.50 0Q143 10 117 28L86-20L55 0L89 51Z"  horiz-adv-x="474" vert-adv-y="1000"  />

      
      <glyph glyph-name="unid9" unicode="&#xd9;" d="M212-7Q168-7 139.50 6.50Q111 20 91 36.50Q71 53 56.50 67Q42 81 25 81L23 88Q30 99 31 110.50Q32 122 32 140L32 425Q32 442 26.50 454Q21 466 13 476L15 483L163 483L165 476Q154 468 147.50 453.50Q141 439 141 413L141 134Q141 116 146.50 100Q152 84 162.50 71.50Q173 59 188 51.50Q203 44 221 44Q257 44 279 70.50Q301 97 301 131L302 413Q302 439 295 453.50Q288 468 277 476L280 483L391 483L393 476Q385 466 379.50 454Q374 442 374 425L374 140Q374 122 375.50 110.50Q377 99 384 88L381 81Q364 81 352.50 67Q341 53 324.50 36.50Q308 20 282 6.50Q256-7 212-7M178 645L239 544L221 535L107 608L178 645Z"  horiz-adv-x="406" vert-adv-y="1000"  />

      
      <glyph glyph-name="unida" unicode="&#xda;" d="M212-7Q168-7 139.50 6.50Q111 20 91 36.50Q71 53 56.50 67Q42 81 25 81L23 88Q30 99 31 110.50Q32 122 32 140L32 425Q32 442 26.50 454Q21 466 13 476L15 483L163 483L165 476Q154 468 147.50 453.50Q141 439 141 413L141 134Q141 116 146.50 100Q152 84 162.50 71.50Q173 59 188 51.50Q203 44 221 44Q257 44 279 70.50Q301 97 301 131L302 413Q302 439 295 453.50Q288 468 277 476L280 483L391 483L393 476Q385 466 379.50 454Q374 442 374 425L374 140Q374 122 375.50 110.50Q377 99 384 88L381 81Q364 81 352.50 67Q341 53 324.50 36.50Q308 20 282 6.50Q256-7 212-7M222 535L204 545L265 646L336 608L222 535Z"  horiz-adv-x="406" vert-adv-y="1000"  />

      
      <glyph glyph-name="unidb" unicode="&#xdb;" d="M212-7Q168-7 139.50 6.50Q111 20 91 36.50Q71 53 56.50 67Q42 81 25 81L23 88Q30 99 31 110.50Q32 122 32 140L32 425Q32 442 26.50 454Q21 466 13 476L15 483L163 483L165 476Q154 468 147.50 453.50Q141 439 141 413L141 134Q141 116 146.50 100Q152 84 162.50 71.50Q173 59 188 51.50Q203 44 221 44Q257 44 279 70.50Q301 97 301 131L302 413Q302 439 295 453.50Q288 468 277 476L280 483L391 483L393 476Q385 466 379.50 454Q374 442 374 425L374 140Q374 122 375.50 110.50Q377 99 384 88L381 81Q364 81 352.50 67Q341 53 324.50 36.50Q308 20 282 6.50Q256-7 212-7M302 548L293 535L220 591L147 535L138 548L220 647L302 548Z"  horiz-adv-x="406" vert-adv-y="1000"  />

      
      <glyph glyph-name="unidc" unicode="&#xdc;" d="M212-7Q168-7 139.50 6.50Q111 20 91 36.50Q71 53 56.50 67Q42 81 25 81L23 88Q30 99 31 110.50Q32 122 32 140L32 425Q32 442 26.50 454Q21 466 13 476L15 483L163 483L165 476Q154 468 147.50 453.50Q141 439 141 413L141 134Q141 116 146.50 100Q152 84 162.50 71.50Q173 59 188 51.50Q203 44 221 44Q257 44 279 70.50Q301 97 301 131L302 413Q302 439 295 453.50Q288 468 277 476L280 483L391 483L393 476Q385 466 379.50 454Q374 442 374 425L374 140Q374 122 375.50 110.50Q377 99 384 88L381 81Q364 81 352.50 67Q341 53 324.50 36.50Q308 20 282 6.50Q256-7 212-7M308 642Q331 642 346.50 626.50Q362 611 362 589Q362 566 346.50 550.50Q331 535 308 535Q286 535 270.50 550.50Q255 566 255 589Q255 611 270.50 626.50Q286 642 308 642M134 642Q156 642 171.50 626.50Q187 611 187 589Q187 566 171.50 550.50Q156 535 134 535Q112 535 96.50 550.50Q81 566 81 589Q81 611 96.50 626.50Q112 642 134 642Z"  horiz-adv-x="406" vert-adv-y="1000"  />

      
      <glyph glyph-name="unidd" unicode="&#xdd;" d="M52 412Q37 439 22 453.50Q7 468-8 476L-8 483L145 483L151 476Q145 468 146.50 453.50Q148 439 163 412L220 311L223 288L227 311L284 413Q299 439 300.50 453.50Q302 468 295 476L302 483L416 483L416 476Q401 468 386 453.50Q371 439 356 413L260 241L260 71Q260 44 266.50 29.50Q273 15 284 7L282 0L127 0L125 7Q136 15 142.50 29.50Q149 44 149 71L149 241L52 412M223 535L205 545L266 646L337 608L223 535Z"  horiz-adv-x="408" vert-adv-y="1000"  />

      
      <glyph glyph-name="unide" unicode="&#xde;" d="M44 413Q44 439 37.50 453.50Q31 468 20 476L22 483L177 483L179 476Q168 468 161.50 453.50Q155 439 155 413L155 366Q170 391 192 402Q214 413 235 413Q273 413 301.50 398.50Q330 384 349 360Q368 336 377.50 305Q387 274 387 241Q387 209 377.50 178.50Q368 148 349.50 124Q331 100 304 85Q277 70 243 70Q217 70 194.50 81Q172 92 155 117L155 71Q155 44 161.50 29.50Q168 15 179 7L177 0L22 0L20 7Q31 15 37.50 29.50Q44 44 44 71L44 413M155 263Q155 244 159 218.50Q163 193 171 170.50Q179 148 192.50 132.50Q206 117 225 117Q238 117 247.50 125Q257 133 263 146Q269 159 272 176.50Q275 194 275 213Q275 239 270 266.50Q265 294 255 316Q245 338 231 352Q217 366 199 366Q183 366 174.50 354.50Q166 343 161.50 327Q157 311 156 293.50Q155 276 155 263Z"  horiz-adv-x="397" vert-adv-y="1000"  />

      
      <glyph glyph-name="unidf" unicode="&#xdf;" d="M155 71Q155 44 161.50 29.50Q168 15 179 7L177 0L22 0L20 7Q31 15 37.50 29.50Q44 44 44 71L44 302L20 302L20 328L44 328Q44 402 80.50 446Q117 490 195 490Q259 490 296.50 446Q334 402 334 332Q320 332 311.50 323.50Q303 315 303 301Q303 285 314.50 268.50Q326 252 342.50 235Q359 218 379 200Q399 182 415.50 163.50Q432 145 443.50 124.50Q455 104 455 83Q455 45 427 20Q399-5 345-5Q328-5 310.50-2.50Q293 0 275 0Q260 0 246-2.50Q232-5 218-12L211-12L194 104L201 104Q218 75 243 58.50Q268 42 296 42Q319 42 332.50 55Q346 68 346 86Q346 100 334.50 116Q323 132 306.50 149Q290 166 270 183.50Q250 201 233.50 220Q217 239 205.50 258Q194 277 194 297Q194 323 206 340Q218 357 237 366Q237 404 223.50 422Q210 440 195 440Q180 440 167.50 423.50Q155 407 155 376L155 71L155 71Z"  horiz-adv-x="470" vert-adv-y="1000"  />

      
      <glyph glyph-name="unie0" unicode="&#xe0;" d="M108 334Q130 334 146 336.50Q162 339 182 339Q208 339 233 331.50Q258 324 277 308.50Q296 293 307.50 269.50Q319 246 319 214L319 71Q319 44 325.50 29.50Q332 15 343 7L341 0L217 0L212 49L208 49Q190 21 162 8Q134-5 105-5Q65-5 37.50 17.50Q10 40 10 80Q10 117 31.50 137.50Q53 158 84 170Q115 182 149 190.50Q183 199 208 211Q208 251 188.50 271Q169 291 143 291Q118 291 94 275Q70 259 55 227L48 227L60 343L67 343Q76 338 87 336Q98 334 108 334M208 189Q194 179 179 169Q164 159 151.50 147Q139 135 130.50 121Q122 107 122 88Q122 68 132 55Q142 42 159 42Q177 42 192.50 58Q208 74 208 112L208 189M140 495L201 394L183 385L69 458L140 495Z"  horiz-adv-x="353" vert-adv-y="1000"  />

      
      <glyph glyph-name="unie1" unicode="&#xe1;" d="M108 334Q130 334 146 336.50Q162 339 182 339Q208 339 233 331.50Q258 324 277 308.50Q296 293 307.50 269.50Q319 246 319 214L319 71Q319 44 325.50 29.50Q332 15 343 7L341 0L217 0L212 49L208 49Q190 21 162 8Q134-5 105-5Q65-5 37.50 17.50Q10 40 10 80Q10 117 31.50 137.50Q53 158 84 170Q115 182 149 190.50Q183 199 208 211Q208 251 188.50 271Q169 291 143 291Q118 291 94 275Q70 259 55 227L48 227L60 343L67 343Q76 338 87 336Q98 334 108 334M208 189Q194 179 179 169Q164 159 151.50 147Q139 135 130.50 121Q122 107 122 88Q122 68 132 55Q142 42 159 42Q177 42 192.50 58Q208 74 208 112L208 189M182 384L164 394L225 495L296 457L182 384Z"  horiz-adv-x="353" vert-adv-y="1000"  />

      
      <glyph glyph-name="unie2" unicode="&#xe2;" d="M108 334Q130 334 146 336.50Q162 339 182 339Q208 339 233 331.50Q258 324 277 308.50Q296 293 307.50 269.50Q319 246 319 214L319 71Q319 44 325.50 29.50Q332 15 343 7L341 0L217 0L212 49L208 49Q190 21 162 8Q134-5 105-5Q65-5 37.50 17.50Q10 40 10 80Q10 117 31.50 137.50Q53 158 84 170Q115 182 149 190.50Q183 199 208 211Q208 251 188.50 271Q169 291 143 291Q118 291 94 275Q70 259 55 227L48 227L60 343L67 343Q76 338 87 336Q98 334 108 334M208 189Q194 179 179 169Q164 159 151.50 147Q139 135 130.50 121Q122 107 122 88Q122 68 132 55Q142 42 159 42Q177 42 192.50 58Q208 74 208 112L208 189M265 398L256 385L183 441L110 385L101 398L183 497L265 398Z"  horiz-adv-x="353" vert-adv-y="1000"  />

      
      <glyph glyph-name="unie3" unicode="&#xe3;" d="M108 334Q130 334 146 336.50Q162 339 182 339Q208 339 233 331.50Q258 324 277 308.50Q296 293 307.50 269.50Q319 246 319 214L319 71Q319 44 325.50 29.50Q332 15 343 7L341 0L217 0L212 49L208 49Q190 21 162 8Q134-5 105-5Q65-5 37.50 17.50Q10 40 10 80Q10 117 31.50 137.50Q53 158 84 170Q115 182 149 190.50Q183 199 208 211Q208 251 188.50 271Q169 291 143 291Q118 291 94 275Q70 259 55 227L48 227L60 343L67 343Q76 338 87 336Q98 334 108 334M89 385Q89 430 103.50 446Q118 462 141 462Q154 462 165.50 459Q177 456 188 452.50Q199 449 210 446Q221 443 234 443Q255 443 277 462Q277 418 262.50 401.50Q248 385 225 385Q199 385 178.50 394.50Q158 404 133 404Q120 404 110 399.50Q100 395 89 385M208 189Q194 179 179 169Q164 159 151.50 147Q139 135 130.50 121Q122 107 122 88Q122 68 132 55Q142 42 159 42Q177 42 192.50 58Q208 74 208 112L208 189Z"  horiz-adv-x="353" vert-adv-y="1000"  />

      
      <glyph glyph-name="unie4" unicode="&#xe4;" d="M108 334Q130 334 146 336.50Q162 339 182 339Q208 339 233 331.50Q258 324 277 308.50Q296 293 307.50 269.50Q319 246 319 214L319 71Q319 44 325.50 29.50Q332 15 343 7L341 0L217 0L212 49L208 49Q190 21 162 8Q134-5 105-5Q65-5 37.50 17.50Q10 40 10 80Q10 117 31.50 137.50Q53 158 84 170Q115 182 149 190.50Q183 199 208 211Q208 251 188.50 271Q169 291 143 291Q118 291 94 275Q70 259 55 227L48 227L60 343L67 343Q76 338 87 336Q98 334 108 334M270 492Q293 492 308.50 476.50Q324 461 324 439Q324 416 308.50 400.50Q293 385 270 385Q248 385 232.50 400.50Q217 416 217 439Q217 461 232.50 476.50Q248 492 270 492M96 492Q118 492 133.50 476.50Q149 461 149 439Q149 416 133.50 400.50Q118 385 96 385Q74 385 58.50 400.50Q43 416 43 439Q43 461 58.50 476.50Q74 492 96 492M208 189Q194 179 179 169Q164 159 151.50 147Q139 135 130.50 121Q122 107 122 88Q122 68 132 55Q142 42 159 42Q177 42 192.50 58Q208 74 208 112L208 189Z"  horiz-adv-x="353" vert-adv-y="1000"  />

      
      <glyph glyph-name="unie5" unicode="&#xe5;" d="M182 434Q168 434 160 420Q152 406 152 390Q152 375 160 361Q168 347 182 347Q196 347 204 361Q212 375 212 390Q212 406 204 420Q196 434 182 434M108 334Q120 334 130 334.50Q140 335 149 336Q133 344 124 358.50Q115 373 115 390Q115 414 133.50 433Q152 452 182 452Q212 452 230.50 433Q249 414 249 390Q249 373 239.50 358.50Q230 344 213 336Q257 328 288 298.50Q319 269 319 214L319 71Q319 44 325.50 29.50Q332 15 343 7L341 0L217 0L212 49L208 49Q190 21 162 8Q134-5 105-5Q65-5 37.50 17.50Q10 40 10 80Q10 117 31.50 137.50Q53 158 84 170Q115 182 149 190.50Q183 199 208 211Q208 251 188.50 271Q169 291 143 291Q118 291 94 275Q70 259 55 227L48 227L60 343L67 343Q76 338 87 336Q98 334 108 334M208 189Q194 179 179 169Q164 159 151.50 147Q139 135 130.50 121Q122 107 122 88Q122 68 132 55Q142 42 159 42Q177 42 192.50 58Q208 74 208 112L208 189Z"  horiz-adv-x="353" vert-adv-y="1000"  />

      
      <glyph glyph-name="unie6" unicode="&#xe6;" d="M435 176Q435 231 418.50 261Q402 291 378 291Q362 291 351 282Q340 273 333.50 259.50Q327 246 324 230Q321 214 321 201Q321 185 323.50 168.50Q326 152 331 136L339 157L435 176M108 334Q130 334 146 336.50Q162 339 182 339Q210 339 237.50 329.50Q265 320 282 302Q302 319 330 329Q358 339 387 339Q415 339 442.50 327.50Q470 316 490.50 294.50Q511 273 522.50 241Q534 209 531 168L333 130Q348 88 382 65Q416 42 455 42Q495 42 529 70L531 63Q511 29 476 12Q441-5 396-5Q345-5 302 18.50Q259 42 238 83L234 83Q217 41 189 18Q161-5 105-5Q65-5 37.50 17.50Q10 40 10 80Q10 117 31.50 137.50Q53 158 84 170Q115 182 149 190.50Q183 199 208 211Q208 251 188.50 271Q169 291 143 291Q118 291 94 275Q70 259 55 227L48 227L60 343L67 343Q76 338 87 336Q98 334 108 334M208 189Q194 179 179 169Q164 159 151.50 147Q139 135 130.50 121Q122 107 122 88Q122 68 132 55Q142 42 159 42Q177 42 192.50 58Q208 74 208 112L208 189Z"  horiz-adv-x="552" vert-adv-y="1000"  />

      
      <glyph glyph-name="unie7" unicode="&#xe7;" d="M122 173Q122 148 130.50 124.50Q139 101 154 82.50Q169 64 189.50 53Q210 42 234 42Q254 42 270.50 49.50Q287 57 302 70L304 63Q288 37 263 17Q238-3 192-5L190-9Q215-9 235-22.50Q255-36 255-64Q255-95 231-109Q207-123 178-123Q160-123 143-117.50Q126-112 115-103L118-87Q129-94 140-96.50Q151-99 162-99Q186-99 198-88.50Q210-78 210-64Q210-50 198-39.50Q186-29 163-29Q150-29 135-35L132-19Q147-11 152-2Q122 3 96 18Q70 33 51 55Q32 77 21 105.50Q10 134 10 167Q10 203 23.50 234.50Q37 266 61 289.50Q85 313 116.50 326Q148 339 184 339Q206 339 217 336.50Q228 334 242 334Q250 334 258 335Q266 336 276 343L283 343L297 230L290 230Q256 291 208 291Q171 291 146.50 261.50Q122 232 122 173Z"  horiz-adv-x="314" vert-adv-y="1000"  />

      
      <glyph glyph-name="unie8" unicode="&#xe8;" d="M130 130Q145 88 179 65Q213 42 252 42Q291 42 326 70L328 63Q308 29 273 12Q238-5 193-5Q155-5 122 7Q89 19 64 41.50Q39 64 24.50 96Q10 128 10 167Q10 203 23.50 234.50Q37 266 61 289.50Q85 313 116.50 326Q148 339 184 339Q212 339 239 327.50Q266 316 287 294.50Q308 273 319.50 241Q331 209 328 168L130 130M232 176Q232 231 215.50 261Q199 291 175 291Q159 291 148 282Q137 273 130.50 259.50Q124 246 121 230Q118 214 118 201Q118 185 120.50 168.50Q123 152 128 136L136 157L232 176M140 495L201 394L183 385L69 458L140 495Z"  horiz-adv-x="349" vert-adv-y="1000"  />

      
      <glyph glyph-name="unie9" unicode="&#xe9;" d="M130 130Q145 88 179 65Q213 42 252 42Q291 42 326 70L328 63Q308 29 273 12Q238-5 193-5Q155-5 122 7Q89 19 64 41.50Q39 64 24.50 96Q10 128 10 167Q10 203 23.50 234.50Q37 266 61 289.50Q85 313 116.50 326Q148 339 184 339Q212 339 239 327.50Q266 316 287 294.50Q308 273 319.50 241Q331 209 328 168L130 130M232 176Q232 231 215.50 261Q199 291 175 291Q159 291 148 282Q137 273 130.50 259.50Q124 246 121 230Q118 214 118 201Q118 185 120.50 168.50Q123 152 128 136L136 157L232 176M182 384L164 394L225 495L296 457L182 384Z"  horiz-adv-x="349" vert-adv-y="1000"  />

      
      <glyph glyph-name="uniea" unicode="&#xea;" d="M130 130Q145 88 179 65Q213 42 252 42Q291 42 326 70L328 63Q308 29 273 12Q238-5 193-5Q155-5 122 7Q89 19 64 41.50Q39 64 24.50 96Q10 128 10 167Q10 203 23.50 234.50Q37 266 61 289.50Q85 313 116.50 326Q148 339 184 339Q212 339 239 327.50Q266 316 287 294.50Q308 273 319.50 241Q331 209 328 168L130 130M232 176Q232 231 215.50 261Q199 291 175 291Q159 291 148 282Q137 273 130.50 259.50Q124 246 121 230Q118 214 118 201Q118 185 120.50 168.50Q123 152 128 136L136 157L232 176M266 398L257 385L184 441L111 385L102 398L184 497L266 398Z"  horiz-adv-x="349" vert-adv-y="1000"  />

      
      <glyph glyph-name="unieb" unicode="&#xeb;" d="M130 130Q145 88 179 65Q213 42 252 42Q291 42 326 70L328 63Q308 29 273 12Q238-5 193-5Q155-5 122 7Q89 19 64 41.50Q39 64 24.50 96Q10 128 10 167Q10 203 23.50 234.50Q37 266 61 289.50Q85 313 116.50 326Q148 339 184 339Q212 339 239 327.50Q266 316 287 294.50Q308 273 319.50 241Q331 209 328 168L130 130M232 176Q232 231 215.50 261Q199 291 175 291Q159 291 148 282Q137 273 130.50 259.50Q124 246 121 230Q118 214 118 201Q118 185 120.50 168.50Q123 152 128 136L136 157L232 176M271 492Q294 492 309.50 476.50Q325 461 325 439Q325 416 309.50 400.50Q294 385 271 385Q249 385 233.50 400.50Q218 416 218 439Q218 461 233.50 476.50Q249 492 271 492M97 492Q119 492 134.50 476.50Q150 461 150 439Q150 416 134.50 400.50Q119 385 97 385Q75 385 59.50 400.50Q44 416 44 439Q44 461 59.50 476.50Q75 492 97 492Z"  horiz-adv-x="349" vert-adv-y="1000"  />

      
      <glyph glyph-name="uniec" unicode="&#xec;" d="M44 232Q44 258 37.50 272.50Q31 287 20 295L22 302L155 334L155 71Q155 44 161.50 29.50Q168 15 179 7L177 0L22 0L20 7Q31 15 37.50 29.50Q44 44 44 71L44 232M55 494L116 393L98 384L-16 457L55 494Z"  horiz-adv-x="189" vert-adv-y="1000"  />

      
      <glyph glyph-name="unied" unicode="&#xed;" d="M44 232Q44 258 37.50 272.50Q31 287 20 295L22 302L155 334L155 71Q155 44 161.50 29.50Q168 15 179 7L177 0L22 0L20 7Q31 15 37.50 29.50Q44 44 44 71L44 232M98 384L80 394L141 495L212 457L98 384Z"  horiz-adv-x="189" vert-adv-y="1000"  />

      
      <glyph glyph-name="uniee" unicode="&#xee;" d="M44 232Q44 258 37.50 272.50Q31 287 20 295L22 302L155 334L155 71Q155 44 161.50 29.50Q168 15 179 7L177 0L22 0L20 7Q31 15 37.50 29.50Q44 44 44 71L44 232M180 397L171 384L98 440L25 384L16 397L98 496L180 397Z"  horiz-adv-x="189" vert-adv-y="1000"  />

      
      <glyph glyph-name="unief" unicode="&#xef;" d="M44 232Q44 258 37.50 272.50Q31 287 20 295L22 302L155 334L155 71Q155 44 161.50 29.50Q168 15 179 7L177 0L22 0L20 7Q31 15 37.50 29.50Q44 44 44 71L44 232M181 491Q204 491 219.50 475.50Q235 460 235 438Q235 415 219.50 399.50Q204 384 181 384Q159 384 143.50 399.50Q128 415 128 438Q128 460 143.50 475.50Q159 491 181 491M17 491Q39 491 54.50 475.50Q70 460 70 438Q70 415 54.50 399.50Q39 384 17 384Q-5 384-20.50 399.50Q-36 415-36 438Q-36 460-20.50 475.50Q-5 491 17 491Z"  horiz-adv-x="189" vert-adv-y="1000"  />

      
      <glyph glyph-name="unif0" unicode="&#xf0;" d="M186 493Q220 493 247 481.50Q274 470 296 450L345 479L360 453L316 427Q342 392 355.50 347Q369 302 369 254Q369 207 356.50 160.50Q344 114 318 77Q292 40 253 17.50Q214-5 162-5Q123-5 94.50 8.50Q66 22 47.50 44.50Q29 67 19.50 95Q10 123 10 153Q10 183 19.50 212Q29 241 47.50 263.50Q66 286 94 300Q122 314 158 314Q173 314 188.50 310Q204 306 218.50 295.50Q233 285 245 267Q257 249 264 221L270 221Q275 272 268 314Q261 356 245 385L195 355L179 381L229 410Q204 441 172 441Q162 441 150.50 438.50Q139 436 127 427.50Q115 419 103.50 403.50Q92 388 82 363L75 363L93 493L100 493Q112 484 126 484Q140 484 154.50 488.50Q169 493 186 493M189 267Q173 267 159.50 256Q146 245 136.50 226.50Q127 208 121.50 184Q116 160 116 135Q116 95 128 68.50Q140 42 163 42Q180 42 194 55.50Q208 69 218 90.50Q228 112 233.50 139Q239 166 239 192Q239 228 224 247.50Q209 267 189 267Z"  horiz-adv-x="387" vert-adv-y="1000"  />

      
      </font>
</defs>
</svg>
